<?xml version="1.0" encoding="utf-8"?>
<!-- Generator: Adobe Illustrator 15.0.2, SVG Export Plug-In . SVG Version: 6.00 Build 0)  -->
<!DOCTYPE svg PUBLIC "-//W3C//DTD SVG 1.0//EN" "http://www.w3.org/TR/2001/REC-SVG-20010904/DTD/svg10.dtd">
<svg version="1.0" id="Layer_1" xmlns="http://www.w3.org/2000/svg" xmlns:xlink="http://www.w3.org/1999/xlink" x="0px" y="0px"
	 width="595.28px" height="841.89px" viewBox="0 0 595.28 841.89" enable-background="new 0 0 595.28 841.89" xml:space="preserve">
<linearGradient id="SVGID_1_" gradientUnits="userSpaceOnUse" x1="267.8892" y1="83.3726" x2="267.8891" y2="460.631">
	<stop  offset="0" style="stop-color:#FFFFFF"/>
	<stop  offset="1" style="stop-color:#D4D4D4"/>
</linearGradient>
<rect x="154.503" y="104.839" fill="url(#SVGID_1_)" stroke="#BABABA" stroke-width="3" stroke-miterlimit="10" width="226.772" height="340.158"/>
<g id="layer1" inkscape:label="Layer 1" inkscape:groupmode="layer">
	
		<radialGradient id="path7077_1_" cx="264.4033" cy="427.7861" r="75.936" gradientTransform="matrix(1 0 0 -0.6639 1.2173 568.9516)" gradientUnits="userSpaceOnUse">
		<stop  offset="0" style="stop-color:#010101"/>
		<stop  offset="1" style="stop-color:#010101;stop-opacity:0"/>
	</radialGradient>
	
		<path id="path7077" sodipodi:cx="23.157747" sodipodi:cy="26.963573" sodipodi:rx="21.566757" sodipodi:ry="14.318913" inkscape:r_cx="true" inkscape:r_cy="true" sodipodi:type="arc" opacity="0.7033" fill="url(#path7077_1_)" enable-background="new    " d="
		M341.545,284.932c0.011,27.841-33.971,50.415-75.903,50.421c-41.932,0.01-75.935-22.553-75.946-50.394c0-0.007,0-0.021,0-0.028
		c-0.014-27.842,33.969-50.418,75.901-50.426c41.933-0.009,75.938,22.555,75.948,50.396
		C341.545,284.911,341.545,284.918,341.545,284.932z"/>
	
		<path id="path7028" sodipodi:cx="25.75" sodipodi:cy="21" sodipodi:rx="14.75" sodipodi:ry="8.25" inkscape:r_cx="true" inkscape:r_cy="true" sodipodi:type="arc" fill="#A1A39F" stroke="#6E6F6A" stroke-width="0.7191" stroke-linecap="round" stroke-linejoin="round" d="
		M324.076,279.211c0,24.733-29.16,44.783-65.128,44.783c-35.97,0-65.129-20.05-65.129-44.783c0-24.736,29.159-44.787,65.129-44.787
		C294.916,234.424,324.076,254.475,324.076,279.211z"/>
	
		<path id="path7042" sodipodi:cx="25.75" sodipodi:cy="21" sodipodi:rx="14.75" sodipodi:ry="8.25" inkscape:r_cx="true" inkscape:r_cy="true" sodipodi:type="arc" fill="#565854" d="
		M296.803,270.337c0,16.073-17.764,29.096-39.672,29.096c-21.912,0-39.674-13.023-39.674-29.096
		c0-16.069,17.762-29.095,39.674-29.095C279.039,241.242,296.803,254.269,296.803,270.337z"/>
	
		<radialGradient id="path6456_1_" cx="257.4434" cy="544.4551" r="49.8196" gradientTransform="matrix(1 0 0 -1 1.9517 851.3145)" gradientUnits="userSpaceOnUse">
		<stop  offset="0" style="stop-color:#777777"/>
		<stop  offset="1" style="stop-color:#494949"/>
	</radialGradient>
	
		<path id="path6456" inkscape:r_cx="true" inkscape:r_cy="true" sodipodi:nodetypes="czccc" fill="url(#path6456_1_)" stroke="#3C3E3A" d="
		M341.769,332.458c0,0-29.302-13.157-48.077-11.503c-20.002,1.767-53.427,2.95-66.527-17.74
		c55.615,16.774,81.276-11.074,118.919,4.61L341.769,332.458z"/>
	
		<linearGradient id="path7026_1_" gradientUnits="userSpaceOnUse" x1="325.1875" y1="604.1797" x2="343.6107" y2="558.3345" gradientTransform="matrix(0.761 0 0 -0.9867 3.1241 831.4499)">
		<stop  offset="0" style="stop-color:#888A85"/>
		<stop  offset="1" style="stop-color:#B8B9B6"/>
	</linearGradient>
	
		<path id="path7026" sodipodi:cx="25.75" sodipodi:cy="21" sodipodi:rx="14.75" sodipodi:ry="8.25" inkscape:r_cx="true" inkscape:r_cy="true" sodipodi:type="arc" fill="url(#path7026_1_)" stroke="#767A73" stroke-width="1.2341" stroke-linecap="round" stroke-linejoin="round" d="
		M298.464,262.322c0,15.827-17.692,28.657-39.516,28.657c-21.824,0-39.515-12.831-39.515-28.657s17.69-28.657,39.515-28.657
		C280.771,233.665,298.464,246.495,298.464,262.322z"/>
	
		<path id="path7012" inkscape:r_cx="true" inkscape:r_cy="true" fill="#D4D7D0" stroke="#888A85" stroke-linecap="round" stroke-linejoin="round" d="
		M253.997,214.495c-33.647,1.852-60.178,22.583-60.178,47.637c0,26.266,29.178,47.636,65.129,47.636
		c35.95,0,65.128-21.37,65.128-47.636s-29.178-47.637-65.128-47.637c-0.142,0-0.3,0-0.44,0c-0.839,0.003-1.7-0.027-2.53,0
		c-0.406,0.014-0.807-0.019-1.21,0C254.501,214.507,254.262,214.481,253.997,214.495z M249.156,222.196
		c0.224-0.017,0.436,0.012,0.66,0c0.473-0.026,0.949,0,1.431,0c10.268,0,18.592,5.992,18.592,13.312
		c0,7.32-8.324,13.202-18.592,13.202s-18.593-5.882-18.593-13.202C232.654,228.695,239.877,222.945,249.156,222.196z
		 M289.642,238.368c0.234-0.021,0.423,0.016,0.66,0c0.413-0.025,0.791,0.007,1.21,0c0.172-0.003,0.269,0,0.44,0
		c10.926,0,19.803,6.388,19.803,14.192s-8.877,14.082-19.803,14.082s-19.803-6.277-19.803-14.082
		C272.149,245.351,279.864,239.243,289.642,238.368z M221.982,249.479c0.767-0.062,1.63,0,2.421,0
		c11.238,0,20.353,6.486,20.353,14.522s-9.114,14.522-20.353,14.522c-11.239,0-20.353-6.486-20.353-14.522
		C204.051,256.531,211.843,250.31,221.982,249.479z M262.578,267.522c0.084-0.01,0.136,0.008,0.221,0c0.01,0,0.101,0,0.109,0
		s0.1,0,0.11,0c0.022,0,0.098,0,0.11,0c0.093,0,0.236-0.002,0.329,0c0.013,0,0.088,0,0.11,0c0.85-0.069,1.655,0,2.53,0
		c12.432,0,22.553,7.144,22.553,16.062s-10.121,16.172-22.553,16.172c-12.434,0-22.553-7.254-22.553-16.172
		C243.546,275.55,251.858,268.767,262.578,267.522z"/>
	<linearGradient id="path7044_1_" gradientUnits="userSpaceOnUse" x1="22.0317" y1="810.1318" x2="22.1076" y2="846.5983">
		<stop  offset="0" style="stop-color:#FFFFFF"/>
		<stop  offset="1" style="stop-color:#FFFFFF;stop-opacity:0"/>
	</linearGradient>
	
		<path id="path7044" sodipodi:cx="22.185474" sodipodi:cy="19.008621" sodipodi:rx="18.473166" sodipodi:ry="13.435029" inkscape:r_cx="true" inkscape:r_cy="true" sodipodi:type="arc" fill="none" stroke="url(#path7044_1_)" stroke-width="1.0593" stroke-linecap="round" stroke-linejoin="round" d="
		M320.899,261.748c0,24.49-27.675,44.341-61.814,44.341c-34.141,0-61.817-19.851-61.817-44.341
		c0-24.489,27.677-44.341,61.817-44.341C293.225,217.407,320.899,237.259,320.899,261.748z"/>
	
		<linearGradient id="path7067_1_" gradientUnits="userSpaceOnUse" x1="381.7822" y1="488.1895" x2="361.6333" y2="492.0785" gradientTransform="matrix(0.8849 0 0 -0.8849 5.4132 751.1055)">
		<stop  offset="0" style="stop-color:#888A85"/>
		<stop  offset="1" style="stop-color:#888A85;stop-opacity:0"/>
	</linearGradient>
	<path id="path7067" inkscape:r_cx="true" inkscape:r_cy="true" sodipodi:nodetypes="ccccc" fill="url(#path7067_1_)" d="
		M344.76,308.757l-3.81,21.298c-9.183-3.084-14.722-5.521-24.891-7.945l1.169-17.293C323.911,304.105,334.35,305.312,344.76,308.757
		z"/>
	
		<linearGradient id="path7136_1_" gradientUnits="userSpaceOnUse" x1="333.5605" y1="536.6104" x2="273.4928" y2="536.6104" gradientTransform="matrix(1 0 0 -1 -0.02 844.0938)">
		<stop  offset="0" style="stop-color:#FFFFFF"/>
		<stop  offset="1" style="stop-color:#FFFFFF;stop-opacity:0"/>
	</linearGradient>
	
		<path id="path7136" inkscape:r_cx="true" inkscape:r_cy="true" sodipodi:nodetypes="cccc" opacity="0.7033" fill="url(#path7136_1_)" enable-background="new    " d="
		M344.76,308.118l-0.66,3.08c-28.535-10.665-54.802-0.797-82.291,0C299.165,308.09,311.411,298.116,344.76,308.118z"/>
</g>
<text transform="matrix(1 0 0 1 207.5347 372.002)" fill="#666766" font-family="'TimesNewRomanPSMT'" font-size="27">Add Image</text>
</svg>
