<?xml version="1.0" encoding="UTF-8" standalone="no"?>
<!-- Created with Inkscape (http://www.inkscape.org/) -->

<svg
   xmlns:dc="http://purl.org/dc/elements/1.1/"
   xmlns:cc="http://creativecommons.org/ns#"
   xmlns:rdf="http://www.w3.org/1999/02/22-rdf-syntax-ns#"
   xmlns:svg="http://www.w3.org/2000/svg"
   xmlns="http://www.w3.org/2000/svg"
   xmlns:xlink="http://www.w3.org/1999/xlink"
   xmlns:sodipodi="http://sodipodi.sourceforge.net/DTD/sodipodi-0.dtd"
   xmlns:inkscape="http://www.inkscape.org/namespaces/inkscape"
   width="210mm"
   height="297mm"
   id="svg2"
   version="1.1"
   inkscape:version="0.47 r22583"
   sodipodi:docname="logo.svg">
  <defs
     id="defs4">
    <inkscape:path-effect
       effect="envelope"
       id="path-effect3151"
       is_visible="true"
       yy="true"
       xx="true"
       bendpath1="m 2.8284271,7.715586 44.4226599,0"
       bendpath2="m 47.251087,7.715586 0,34.329464"
       bendpath3="m 2.8284271,42.04505 44.4226599,0"
       bendpath4="M -69.565337,18.116989 2.8284271,42.04505"
       bendpath4-nodetypes="cc" />
    <inkscape:path-effect
       effect="spiro"
       id="path-effect3149"
       is_visible="true" />
    <inkscape:path-effect
       effect="gears"
       id="path-effect3147"
       is_visible="true"
       teeth="30"
       phi="5" />
    <inkscape:path-effect
       effect="bend_path"
       id="path-effect3145"
       is_visible="true"
       bendpath="m 2.8284271,24.880318 44.4226599,0"
       prop_scale="1"
       scale_y_rel="false"
       vertical="false" />
    <inkscape:perspective
       sodipodi:type="inkscape:persp3d"
       inkscape:vp_x="0 : 526.18109 : 1"
       inkscape:vp_y="0 : 1000 : 0"
       inkscape:vp_z="744.09448 : 526.18109 : 1"
       inkscape:persp3d-origin="372.04724 : 350.78739 : 1"
       id="perspective10" />
    <inkscape:perspective
       id="perspective54"
       inkscape:persp3d-origin="64 : 42.666667 : 1"
       inkscape:vp_z="128 : 64 : 1"
       inkscape:vp_y="0 : 1000 : 0"
       inkscape:vp_x="0 : 64 : 1"
       sodipodi:type="inkscape:persp3d" />
    <radialGradient
       gradientUnits="userSpaceOnUse"
       fy="22.6138"
       fx="9.3418"
       r="14.1515"
       cy="22.6138"
       cx="9.3418"
       id="aigrd4">
      <stop
         id="stop6452"
         style="stop-color:#767676"
         offset="0" />
      <stop
         id="stop6454"
         style="stop-color:#484848"
         offset="1" />
    </radialGradient>
    <linearGradient
       id="linearGradient7087">
      <stop
         id="stop7089"
         offset="0"
         style="stop-color:#888a85;stop-opacity:1;" />
      <stop
         id="stop7091"
         offset="1"
         style="stop-color:#b8b9b6;stop-opacity:1;" />
    </linearGradient>
    <inkscape:perspective
       id="perspective2938"
       inkscape:persp3d-origin="24 : 16 : 1"
       inkscape:vp_z="48 : 24 : 1"
       inkscape:vp_y="0 : 1000 : 0"
       inkscape:vp_x="0 : 24 : 1"
       sodipodi:type="inkscape:persp3d" />
    <radialGradient
       gradientUnits="userSpaceOnUse"
       fy="22.6138"
       fx="9.3418"
       r="14.1515"
       cy="22.6138"
       cx="9.3418"
       id="aigrd4-9">
      <stop
         id="stop6452-6"
         style="stop-color:#767676"
         offset="0" />
      <stop
         id="stop6454-1"
         style="stop-color:#484848"
         offset="1" />
    </radialGradient>
    <linearGradient
       id="linearGradient7087-0">
      <stop
         id="stop7089-4"
         offset="0"
         style="stop-color:#888a85;stop-opacity:1;" />
      <stop
         id="stop7091-2"
         offset="1"
         style="stop-color:#b8b9b6;stop-opacity:1;" />
    </linearGradient>
    <inkscape:perspective
       id="perspective3013"
       inkscape:persp3d-origin="24 : 16 : 1"
       inkscape:vp_z="48 : 24 : 1"
       inkscape:vp_y="0 : 1000 : 0"
       inkscape:vp_x="0 : 24 : 1"
       sodipodi:type="inkscape:persp3d" />
    <inkscape:perspective
       id="perspective54-2"
       inkscape:persp3d-origin="64 : 42.666667 : 1"
       inkscape:vp_z="128 : 64 : 1"
       inkscape:vp_y="0 : 1000 : 0"
       inkscape:vp_x="0 : 64 : 1"
       sodipodi:type="inkscape:persp3d" />
    <inkscape:perspective
       id="perspective2882"
       inkscape:persp3d-origin="0.5 : 0.33333333 : 1"
       inkscape:vp_z="1 : 0.5 : 1"
       inkscape:vp_y="0 : 1000 : 0"
       inkscape:vp_x="0 : 0.5 : 1"
       sodipodi:type="inkscape:persp3d" />
    <radialGradient
       gradientUnits="userSpaceOnUse"
       gradientTransform="matrix(1,0,0,0.663934,0,9.061528)"
       r="21.566757"
       fy="26.963573"
       fx="23.157747"
       cy="26.963573"
       cx="23.157747"
       id="radialGradient7085-6"
       xlink:href="#linearGradient7079-1"
       inkscape:collect="always" />
    <linearGradient
       id="linearGradient7079-1"
       inkscape:collect="always">
      <stop
         id="stop7081-0"
         offset="0"
         style="stop-color:#000000;stop-opacity:1;" />
      <stop
         id="stop7083-4"
         offset="1"
         style="stop-color:#000000;stop-opacity:0;" />
    </linearGradient>
    <radialGradient
       gradientTransform="translate(1.971678,9.220141)"
       inkscape:collect="always"
       xlink:href="#aigrd4-9-2"
       id="radialGradient6540-2"
       gradientUnits="userSpaceOnUse"
       cx="20.655508"
       cy="24.735121"
       fx="20.655508"
       fy="24.735121"
       r="14.1515" />
    <radialGradient
       gradientUnits="userSpaceOnUse"
       fy="22.6138"
       fx="9.3417997"
       r="14.1515"
       cy="22.6138"
       cx="9.3417997"
       id="aigrd4-9-2">
      <stop
         id="stop6452-6-2"
         style="stop-color:#767676"
         offset="0" />
      <stop
         id="stop6454-1-0"
         style="stop-color:#484848"
         offset="1" />
    </radialGradient>
    <linearGradient
       gradientUnits="userSpaceOnUse"
       y2="25.772396"
       x2="29.049412"
       y1="12.75"
       x1="23.816254"
       id="linearGradient7093-5"
       xlink:href="#linearGradient7087-0-5"
       inkscape:collect="always" />
    <linearGradient
       id="linearGradient7087-0-5">
      <stop
         id="stop7089-4-2"
         offset="0"
         style="stop-color:#888a85;stop-opacity:1;" />
      <stop
         id="stop7091-2-9"
         offset="1"
         style="stop-color:#b8b9b6;stop-opacity:1;" />
    </linearGradient>
    <linearGradient
       gradientUnits="userSpaceOnUse"
       y2="-4.5986342"
       x2="21.107563"
       y1="31.867859"
       x1="21.03167"
       id="linearGradient7060-2-0"
       xlink:href="#linearGradient7054-0-2"
       inkscape:collect="always" />
    <linearGradient
       id="linearGradient7054-0-2"
       inkscape:collect="always">
      <stop
         id="stop7056-4-8"
         offset="0"
         style="stop-color:#ffffff;stop-opacity:1;" />
      <stop
         id="stop7058-2-3"
         offset="1"
         style="stop-color:#ffffff;stop-opacity:0;" />
    </linearGradient>
    <linearGradient
       gradientTransform="matrix(0.884878,0,0,0.884878,5.318113,5.943159)"
       gradientUnits="userSpaceOnUse"
       y2="34.140205"
       x2="40.820396"
       y1="35.24506"
       x1="46.54464"
       id="linearGradient7075-8"
       xlink:href="#linearGradient7069-0"
       inkscape:collect="always" />
    <linearGradient
       id="linearGradient7069-0"
       inkscape:collect="always">
      <stop
         id="stop7071-4"
         offset="0"
         style="stop-color:#888a85;stop-opacity:1;" />
      <stop
         id="stop7073-0"
         offset="1"
         style="stop-color:#888a85;stop-opacity:0;" />
    </linearGradient>
    <linearGradient
       gradientTransform="translate(0,2)"
       gradientUnits="userSpaceOnUse"
       y2="32.133045"
       x2="26.625"
       y1="32.133045"
       x1="43.6875"
       id="linearGradient7144-9"
       xlink:href="#linearGradient7138-1"
       inkscape:collect="always" />
    <linearGradient
       id="linearGradient7138-1"
       inkscape:collect="always">
      <stop
         id="stop7140-9"
         offset="0"
         style="stop-color:#ffffff;stop-opacity:1;" />
      <stop
         id="stop7142-6"
         offset="1"
         style="stop-color:#ffffff;stop-opacity:0;" />
    </linearGradient>
    <linearGradient
       y2="32.133045"
       x2="26.625"
       y1="32.133045"
       x1="43.6875"
       gradientTransform="translate(0,2)"
       gradientUnits="userSpaceOnUse"
       id="linearGradient2920"
       xlink:href="#linearGradient7138-1"
       inkscape:collect="always" />
  </defs>
  <sodipodi:namedview
     id="base"
     pagecolor="#ffffff"
     bordercolor="#666666"
     borderopacity="1.0"
     inkscape:pageopacity="0.0"
     inkscape:pageshadow="2"
     inkscape:zoom="0.98994949"
     inkscape:cx="170.71108"
     inkscape:cy="579.82071"
     inkscape:document-units="px"
     inkscape:current-layer="layer1"
     showgrid="false"
     inkscape:window-width="1920"
     inkscape:window-height="1077"
     inkscape:window-x="0"
     inkscape:window-y="24"
     inkscape:window-maximized="1" />
  <metadata
     id="metadata7">
    <rdf:RDF>
      <cc:Work
         rdf:about="">
        <dc:format>image/svg+xml</dc:format>
        <dc:type
           rdf:resource="http://purl.org/dc/dcmitype/StillImage" />
        <dc:title />
      </cc:Work>
    </rdf:RDF>
  </metadata>
  <g
     inkscape:label="Ebene 1"
     inkscape:groupmode="layer"
     id="layer1">
    <text
       xml:space="preserve"
       style="font-size:48px;font-style:normal;font-variant:normal;font-weight:normal;font-stretch:normal;text-align:start;line-height:125%;writing-mode:lr-tb;text-anchor:start;fill:#000000;fill-opacity:1;stroke:none;font-family:OldStyle 1;-inkscape-font-specification:'OldStyle 1,'"
       x="290.10907"
       y="500.96808"
       id="text3153"
       sodipodi:linespacing="125%"><tspan
         sodipodi:role="line"
         id="tspan3155"
         x="290.10907"
         y="500.96808">Series Organizer</tspan></text>
    <text
       xml:space="preserve"
       style="font-size:114.09844208px;font-style:normal;font-variant:normal;font-weight:normal;font-stretch:normal;text-align:start;line-height:125%;writing-mode:lr-tb;text-anchor:start;fill:#000000;fill-opacity:1;stroke:none;font-family:OldStyle 1;-inkscape-font-specification:'OldStyle 1,'"
       x="260.9249"
       y="453.87994"
       id="text2870"
       sodipodi:linespacing="125%"><tspan
         sodipodi:role="line"
         id="tspan2872"
         x="260.9249"
         y="453.87994">Diribeo</tspan></text>
    <g
       transform="matrix(3.7150538,0,0,3.7150538,99.612699,353.9845)"
       id="layer1-0"
       inkscape:label="Layer 1">
      <path
         sodipodi:type="arc"
         style="opacity:0.70329674;color:#000000;fill:url(#radialGradient7085-6);fill-opacity:1;fill-rule:evenodd;stroke:none;stroke-width:1;marker:none;visibility:visible;display:inline;overflow:visible"
         id="path7077"
         sodipodi:cx="23.157747"
         sodipodi:cy="26.963573"
         sodipodi:rx="21.566757"
         sodipodi:ry="14.318913"
         d="m 44.724504,26.963573 c 0,7.908118 -9.655766,14.318914 -21.566757,14.318914 -11.910991,0 -21.5667569,-6.410796 -21.5667569,-14.318914 0,-7.908117 9.6557659,-14.318913 21.5667569,-14.318913 11.910991,0 21.566757,6.410796 21.566757,14.318913 z"
         inkscape:r_cx="true"
         inkscape:r_cy="true"
         transform="translate(1.237437,0.762563)" />
      <path
         transform="matrix(1.254237,0,0,1.541926,-9.79661,-6.279528)"
         inkscape:r_cy="true"
         inkscape:r_cx="true"
         d="m 40.5,21 c 0,4.556349 -6.6038,8.25 -14.75,8.25 C 17.6038,29.25 11,25.556349 11,21 c 0,-4.556349 6.6038,-8.25 14.75,-8.25 8.1462,0 14.75,3.693651 14.75,8.25 z"
         sodipodi:ry="8.25"
         sodipodi:rx="14.75"
         sodipodi:cy="21"
         sodipodi:cx="25.75"
         id="path7028"
         style="color:#000000;fill:#a1a39f;fill-opacity:1;fill-rule:evenodd;stroke:#6d6f6a;stroke-width:0.7190817;stroke-linecap:round;stroke-linejoin:round;stroke-miterlimit:4;stroke-opacity:1;stroke-dasharray:none;stroke-dashoffset:0;marker:none;visibility:visible;display:inline;overflow:visible"
         sodipodi:type="arc" />
      <path
         sodipodi:type="arc"
         style="color:#000000;fill:#555753;fill-opacity:1;fill-rule:evenodd;stroke:none;stroke-width:1.11522388;marker:none;visibility:visible;display:inline;overflow:visible"
         id="path7042"
         sodipodi:cx="25.75"
         sodipodi:cy="21"
         sodipodi:rx="14.75"
         sodipodi:ry="8.25"
         d="m 40.5,21 c 0,4.556349 -6.6038,8.25 -14.75,8.25 C 17.6038,29.25 11,25.556349 11,21 c 0,-4.556349 6.6038,-8.25 14.75,-8.25 8.1462,0 14.75,3.693651 14.75,8.25 z"
         inkscape:r_cx="true"
         inkscape:r_cy="true"
         transform="matrix(0.764011,0,0,1.001814,2.310475,2.543083)" />
      <path
         style="fill:url(#radialGradient6540-2);fill-rule:nonzero;stroke:#3b3d39;stroke-miterlimit:4;stroke-opacity:1"
         d="m 46.025804,41.226233 c 0,0 -8.323895,-3.737007 -13.655999,-3.266718 -5.683012,0.501239 -15.176777,0.837437 -18.898097,-5.03934 15.798097,4.764466 23.08699,-3.145748 33.779379,1.309515 0,0 -1.225283,6.996543 -1.225283,6.996543 z"
         id="path6456"
         inkscape:r_cx="true"
         inkscape:r_cy="true"
         sodipodi:nodetypes="czccc" />
      <path
         transform="matrix(0.760969,0,0,0.986663,2.905048,0.584267)"
         inkscape:r_cy="true"
         inkscape:r_cx="true"
         d="m 40.5,21 c 0,4.556349 -6.6038,8.25 -14.75,8.25 C 17.6038,29.25 11,25.556349 11,21 c 0,-4.556349 6.6038,-8.25 14.75,-8.25 8.1462,0 14.75,3.693651 14.75,8.25 z"
         sodipodi:ry="8.25"
         sodipodi:rx="14.75"
         sodipodi:cy="21"
         sodipodi:cx="25.75"
         id="path7026"
         style="color:#000000;fill:url(#linearGradient7093-5);fill-opacity:1;fill-rule:evenodd;stroke:#757972;stroke-width:1.23408842;stroke-linecap:round;stroke-linejoin:round;stroke-miterlimit:4;stroke-opacity:1;stroke-dasharray:none;stroke-dashoffset:0;marker:none;visibility:visible;display:inline;overflow:visible"
         sodipodi:type="arc" />
      <path
         style="color:#000000;fill:#d3d7cf;fill-opacity:1;fill-rule:evenodd;stroke:#888a85;stroke-width:1;stroke-linecap:round;stroke-linejoin:round;stroke-miterlimit:4;stroke-opacity:1;stroke-dasharray:none;stroke-dashoffset:0;marker:none;visibility:visible;display:inline;overflow:visible"
         d="M 21.09375,7.71875 C 11.536229,8.2444238 4.0000001,14.13337 4,21.25 4,28.711046 12.288003,34.781251 22.5,34.78125 32.711998,34.78125 41,28.711045 41,21.25 41,13.788954 32.711998,7.71875 22.5,7.71875 c -0.03989,0 -0.08517,-1.845e-4 -0.125,0 -0.238056,0.0011 -0.482906,-0.00764 -0.71875,0 -0.115158,0.00373 -0.22915,-0.00527 -0.34375,0 -0.0755,0.00347 -0.143494,-0.00414 -0.21875,0 z m -1.375,2.1875 c 0.06325,-0.00511 0.123591,0.00347 0.1875,0 0.134104,-0.00728 0.269544,0 0.40625,0 2.916392,2e-7 5.28125,1.702203 5.28125,3.78125 0,2.079047 -2.364859,3.75 -5.28125,3.75 -2.916391,0 -5.28125,-1.670953 -5.28125,-3.75 0,-1.935148 2.051954,-3.568463 4.6875,-3.78125 z m 11.5,4.59375 c 0.06665,-0.006 0.120185,0.0043 0.1875,0 0.116752,-0.0074 0.225136,0.0021 0.34375,0 0.0482,-8.73e-4 0.07651,0 0.125,0 3.103453,0 5.625,1.814203 5.625,4.03125 0,2.217046 -2.521546,4 -5.625,4 -3.103454,1e-6 -5.625,-1.782953 -5.625,-4 -1e-6,-2.048003 2.191783,-3.782807 4.96875,-4.03125 z M 12,17.65625 c 0.217826,-0.01782 0.463035,0 0.6875,0 3.192389,0 5.78125,1.842348 5.78125,4.125 0,2.282652 -2.588861,4.125 -5.78125,4.125 -3.1923882,0 -5.78125,-1.842348 -5.78125,-4.125 0,-2.122152 2.2136041,-3.889336 5.09375,-4.125 z m 11.53125,5.125 c 0.02398,-0.0028 0.03844,0.0026 0.0625,0 0.0027,-1.17e-4 0.0287,-3.3e-5 0.03125,0 0.0026,4.5e-5 0.02849,9.9e-5 0.03125,0 0.0062,1.06e-4 0.02806,1.15e-4 0.03125,0 0.02615,1.79e-4 0.06751,-3.83e-4 0.09375,0 0.0032,-7.7e-5 0.02502,-8.3e-5 0.03125,0 0.240976,-0.01978 0.47043,0 0.71875,0 3.531666,0 6.40625,2.029561 6.40625,4.5625 0,2.53294 -2.874584,4.59375 -6.40625,4.59375 -3.531666,0 -6.40625,-2.060811 -6.40625,-4.59375 0,-2.281969 2.361444,-4.208711 5.40625,-4.5625 z"
         id="path7012"
         inkscape:r_cx="true"
         inkscape:r_cy="true" />
      <path
         sodipodi:type="arc"
         style="color:#000000;fill:none;stroke:url(#linearGradient7060-2-0);stroke-width:1.05932879;stroke-linecap:round;stroke-linejoin:round;stroke-miterlimit:4;stroke-opacity:1;stroke-dasharray:none;stroke-dashoffset:0;marker:none;visibility:visible;display:inline;overflow:visible"
         id="path7044"
         sodipodi:cx="22.185474"
         sodipodi:cy="19.008621"
         sodipodi:rx="18.473166"
         sodipodi:ry="13.435029"
         d="m 40.65864,19.008621 c 0,7.419962 -8.270718,13.435029 -18.473166,13.435029 -10.202447,0 -18.4731651,-6.015067 -18.4731651,-13.435029 0,-7.419961 8.2707181,-13.4350288 18.4731651,-13.4350288 10.202448,0 18.473166,6.0150678 18.473166,13.4350288 z"
         inkscape:r_cx="true"
         inkscape:r_cy="true"
         transform="matrix(0.950533,0,0,0.9375,1.450995,3.320621)" />
      <path
         style="color:#000000;fill:url(#linearGradient7075-8);fill-opacity:1;fill-rule:evenodd;stroke:none;stroke-width:1;marker:none;visibility:visible;display:inline;overflow:visible"
         d="m 46.875,34.493906 -1.081562,6.04999 C 43.18442,39.668459 41.611389,38.97574 38.722272,38.287036 l 0.331829,-4.912647 c 1.898531,-0.201306 4.863279,0.141734 7.820899,1.119517 z"
         id="path7067"
         inkscape:r_cx="true"
         inkscape:r_cy="true"
         sodipodi:nodetypes="ccccc" />
      <path
         style="opacity:0.70329674;color:#000000;fill:url(#linearGradient2920);fill-opacity:1;fill-rule:evenodd;stroke:none;stroke-width:1;marker:none;visibility:visible;display:inline;overflow:visible"
         d="m 46.875,34.3125 -0.1875,0.875 c -8.104899,-3.028886 -15.566065,-0.226719 -23.375,0 10.611053,-0.882579 14.090243,-3.715657 23.5625,-0.875 z"
         id="path7136"
         inkscape:r_cx="true"
         inkscape:r_cy="true"
         sodipodi:nodetypes="cccc" />
    </g>
  </g>
</svg>
