<?xml version="1.0" encoding="UTF-8" standalone="no"?>
<!-- Created with Inkscape (http://www.inkscape.org/) -->

<svg
   xmlns:dc="http://purl.org/dc/elements/1.1/"
   xmlns:cc="http://creativecommons.org/ns#"
   xmlns:rdf="http://www.w3.org/1999/02/22-rdf-syntax-ns#"
   xmlns:svg="http://www.w3.org/2000/svg"
   xmlns="http://www.w3.org/2000/svg"
   xmlns:xlink="http://www.w3.org/1999/xlink"
   xmlns:sodipodi="http://sodipodi.sourceforge.net/DTD/sodipodi-0.dtd"
   xmlns:inkscape="http://www.inkscape.org/namespaces/inkscape"
   width="530.43213"
   height="142.90489"
   id="svg2"
   version="1.1"
   inkscape:version="0.47 r22583"
   sodipodi:docname="diribeo_logo.svg">
  <defs
     id="defs4">
    <inkscape:path-effect
       effect="envelope"
       id="path-effect3151"
       is_visible="true"
       yy="true"
       xx="true"
       bendpath1="m 2.8284271,7.715586 44.4226599,0"
       bendpath2="m 47.251087,7.715586 0,34.329464"
       bendpath3="m 2.8284271,42.04505 44.4226599,0"
       bendpath4="M -69.565337,18.116989 2.8284271,42.04505"
       bendpath4-nodetypes="cc" />
    <inkscape:path-effect
       effect="spiro"
       id="path-effect3149"
       is_visible="true" />
    <inkscape:path-effect
       effect="gears"
       id="path-effect3147"
       is_visible="true"
       teeth="30"
       phi="5" />
    <inkscape:path-effect
       effect="bend_path"
       id="path-effect3145"
       is_visible="true"
       bendpath="m 2.8284271,24.880318 44.4226599,0"
       prop_scale="1"
       scale_y_rel="false"
       vertical="false" />
    <inkscape:perspective
       sodipodi:type="inkscape:persp3d"
       inkscape:vp_x="0 : 526.18109 : 1"
       inkscape:vp_y="0 : 1000 : 0"
       inkscape:vp_z="744.09448 : 526.18109 : 1"
       inkscape:persp3d-origin="372.04724 : 350.78739 : 1"
       id="perspective10" />
    <inkscape:perspective
       id="perspective54"
       inkscape:persp3d-origin="64 : 42.666667 : 1"
       inkscape:vp_z="128 : 64 : 1"
       inkscape:vp_y="0 : 1000 : 0"
       inkscape:vp_x="0 : 64 : 1"
       sodipodi:type="inkscape:persp3d" />
    <radialGradient
       gradientUnits="userSpaceOnUse"
       fy="22.6138"
       fx="9.3417997"
       r="14.1515"
       cy="22.6138"
       cx="9.3417997"
       id="aigrd4">
      <stop
         id="stop6452"
         style="stop-color:#767676"
         offset="0" />
      <stop
         id="stop6454"
         style="stop-color:#484848"
         offset="1" />
    </radialGradient>
    <linearGradient
       id="linearGradient7087">
      <stop
         id="stop7089"
         offset="0"
         style="stop-color:#888a85;stop-opacity:1;" />
      <stop
         id="stop7091"
         offset="1"
         style="stop-color:#b8b9b6;stop-opacity:1;" />
    </linearGradient>
    <inkscape:perspective
       id="perspective2938"
       inkscape:persp3d-origin="24 : 16 : 1"
       inkscape:vp_z="48 : 24 : 1"
       inkscape:vp_y="0 : 1000 : 0"
       inkscape:vp_x="0 : 24 : 1"
       sodipodi:type="inkscape:persp3d" />
    <radialGradient
       gradientUnits="userSpaceOnUse"
       fy="22.6138"
       fx="9.3417997"
       r="14.1515"
       cy="22.6138"
       cx="9.3417997"
       id="aigrd4-9">
      <stop
         id="stop6452-6"
         style="stop-color:#767676"
         offset="0" />
      <stop
         id="stop6454-1"
         style="stop-color:#484848"
         offset="1" />
    </radialGradient>
    <linearGradient
       id="linearGradient7087-0">
      <stop
         id="stop7089-4"
         offset="0"
         style="stop-color:#888a85;stop-opacity:1;" />
      <stop
         id="stop7091-2"
         offset="1"
         style="stop-color:#b8b9b6;stop-opacity:1;" />
    </linearGradient>
    <inkscape:perspective
       id="perspective3013"
       inkscape:persp3d-origin="24 : 16 : 1"
       inkscape:vp_z="48 : 24 : 1"
       inkscape:vp_y="0 : 1000 : 0"
       inkscape:vp_x="0 : 24 : 1"
       sodipodi:type="inkscape:persp3d" />
    <inkscape:perspective
       id="perspective54-2"
       inkscape:persp3d-origin="64 : 42.666667 : 1"
       inkscape:vp_z="128 : 64 : 1"
       inkscape:vp_y="0 : 1000 : 0"
       inkscape:vp_x="0 : 64 : 1"
       sodipodi:type="inkscape:persp3d" />
    <inkscape:perspective
       id="perspective2882"
       inkscape:persp3d-origin="0.5 : 0.33333333 : 1"
       inkscape:vp_z="1 : 0.5 : 1"
       inkscape:vp_y="0 : 1000 : 0"
       inkscape:vp_x="0 : 0.5 : 1"
       sodipodi:type="inkscape:persp3d" />
    <radialGradient
       gradientUnits="userSpaceOnUse"
       gradientTransform="matrix(1,0,0,0.663934,0,9.061528)"
       r="21.566757"
       fy="26.963573"
       fx="23.157747"
       cy="26.963573"
       cx="23.157747"
       id="radialGradient7085-6"
       xlink:href="#linearGradient7079-1"
       inkscape:collect="always" />
    <linearGradient
       id="linearGradient7079-1"
       inkscape:collect="always">
      <stop
         id="stop7081-0"
         offset="0"
         style="stop-color:#000000;stop-opacity:1;" />
      <stop
         id="stop7083-4"
         offset="1"
         style="stop-color:#000000;stop-opacity:0;" />
    </linearGradient>
    <radialGradient
       gradientTransform="translate(1.971678,9.220141)"
       inkscape:collect="always"
       xlink:href="#aigrd4-9-2"
       id="radialGradient6540-2"
       gradientUnits="userSpaceOnUse"
       cx="20.655508"
       cy="24.735121"
       fx="20.655508"
       fy="24.735121"
       r="14.1515" />
    <radialGradient
       gradientUnits="userSpaceOnUse"
       fy="22.6138"
       fx="9.3417997"
       r="14.1515"
       cy="22.6138"
       cx="9.3417997"
       id="aigrd4-9-2">
      <stop
         id="stop6452-6-2"
         style="stop-color:#767676"
         offset="0" />
      <stop
         id="stop6454-1-0"
         style="stop-color:#484848"
         offset="1" />
    </radialGradient>
    <linearGradient
       gradientUnits="userSpaceOnUse"
       y2="25.772396"
       x2="29.049412"
       y1="12.75"
       x1="23.816254"
       id="linearGradient7093-5"
       xlink:href="#linearGradient7087-0-5"
       inkscape:collect="always" />
    <linearGradient
       id="linearGradient7087-0-5">
      <stop
         id="stop7089-4-2"
         offset="0"
         style="stop-color:#888a85;stop-opacity:1;" />
      <stop
         id="stop7091-2-9"
         offset="1"
         style="stop-color:#b8b9b6;stop-opacity:1;" />
    </linearGradient>
    <linearGradient
       gradientUnits="userSpaceOnUse"
       y2="-4.5986342"
       x2="21.107563"
       y1="31.867859"
       x1="21.03167"
       id="linearGradient7060-2-0"
       xlink:href="#linearGradient7054-0-2"
       inkscape:collect="always" />
    <linearGradient
       id="linearGradient7054-0-2"
       inkscape:collect="always">
      <stop
         id="stop7056-4-8"
         offset="0"
         style="stop-color:#ffffff;stop-opacity:1;" />
      <stop
         id="stop7058-2-3"
         offset="1"
         style="stop-color:#ffffff;stop-opacity:0;" />
    </linearGradient>
    <linearGradient
       gradientTransform="matrix(0.884878,0,0,0.884878,5.318113,5.943159)"
       gradientUnits="userSpaceOnUse"
       y2="34.140205"
       x2="40.820396"
       y1="35.24506"
       x1="46.54464"
       id="linearGradient7075-8"
       xlink:href="#linearGradient7069-0"
       inkscape:collect="always" />
    <linearGradient
       id="linearGradient7069-0"
       inkscape:collect="always">
      <stop
         id="stop7071-4"
         offset="0"
         style="stop-color:#888a85;stop-opacity:1;" />
      <stop
         id="stop7073-0"
         offset="1"
         style="stop-color:#888a85;stop-opacity:0;" />
    </linearGradient>
    <linearGradient
       gradientTransform="translate(0,2)"
       gradientUnits="userSpaceOnUse"
       y2="32.133045"
       x2="26.625"
       y1="32.133045"
       x1="43.6875"
       id="linearGradient7144-9"
       xlink:href="#linearGradient7138-1"
       inkscape:collect="always" />
    <linearGradient
       id="linearGradient7138-1"
       inkscape:collect="always">
      <stop
         id="stop7140-9"
         offset="0"
         style="stop-color:#ffffff;stop-opacity:1;" />
      <stop
         id="stop7142-6"
         offset="1"
         style="stop-color:#ffffff;stop-opacity:0;" />
    </linearGradient>
    <linearGradient
       y2="32.133045"
       x2="26.625"
       y1="32.133045"
       x1="43.6875"
       gradientTransform="translate(0,2)"
       gradientUnits="userSpaceOnUse"
       id="linearGradient2920"
       xlink:href="#linearGradient7138-1"
       inkscape:collect="always" />
  </defs>
  <sodipodi:namedview
     id="base"
     pagecolor="#ffffff"
     bordercolor="#666666"
     borderopacity="1.0"
     inkscape:pageopacity="0.0"
     inkscape:pageshadow="2"
     inkscape:zoom="0.98994949"
     inkscape:cx="60.590625"
     inkscape:cy="37.64265"
     inkscape:document-units="px"
     inkscape:current-layer="layer1"
     showgrid="false"
     inkscape:window-width="1920"
     inkscape:window-height="1077"
     inkscape:window-x="0"
     inkscape:window-y="24"
     inkscape:window-maximized="1" />
  <metadata
     id="metadata7">
    <rdf:RDF>
      <cc:Work
         rdf:about="">
        <dc:format>image/svg+xml</dc:format>
        <dc:type
           rdf:resource="http://purl.org/dc/dcmitype/StillImage" />
        <dc:title></dc:title>
      </cc:Work>
    </rdf:RDF>
  </metadata>
  <g
     inkscape:label="Ebene 1"
     inkscape:groupmode="layer"
     id="layer1"
     transform="translate(-110.12046,-367.27923)">
    <g
       style="font-size:48px;font-style:normal;font-variant:normal;font-weight:normal;font-stretch:normal;text-align:start;line-height:125%;writing-mode:lr-tb;text-anchor:start;fill:#000000;fill-opacity:1;stroke:none;font-family:OldStyle 1;-inkscape-font-specification:'OldStyle 1,'"
       id="text3153">
      <path
         d="m 317.18107,494.82408 c -1.40803,3.36 -3.26402,5.296 -5.568,5.808 -1.60002,0.928 -3.36002,1.392 -5.28,1.392 -1.95201,0 -3.71201,-0.464 -5.28,-1.392 -0.16001,-0.032 -0.72001,-0.192 -1.68,-0.48 -0.70401,-0.192 -1.28001,-0.288 -1.728,-0.288 -0.64001,0 -1.20001,0.176 -1.68,0.528 -0.67201,0.96 -1.232,1.44 -1.68,1.44 -0.224,0 -0.432,-0.08 -0.624,-0.24 -0.736,-0.864 -1.136,-2.224 -1.2,-4.08 -0.096,-2.432 -0.224,-3.91999 -0.384,-4.464 0.544,-0.67199 1.2,-0.73599 1.968,-0.192 0.832,1.40801 2.07999,2.656 3.744,3.744 0.25599,0.192 1.72799,1.024 4.416,2.496 0.44799,0.032 1.07199,0.192 1.872,0.48 0.79999,0.256 1.39198,0.384 1.776,0.384 0.38398,0 0.73598,-0.08 1.056,-0.24 3.13598,0 5.35998,-1.104 6.672,-3.312 0.47998,-0.8 0.71998,-1.696 0.72,-2.688 -2e-5,-1.27999 -0.36802,-2.54399 -1.104,-3.792 -0.83202,-1.11999 -2.04802,-2.04799 -3.648,-2.784 -1.40802,-0.57599 -2.81602,-1.13599 -4.224,-1.68 -5.60001,-0.99198 -9.48801,-3.32798 -11.664,-7.008 -0.352,-1.47198 -0.528,-2.84798 -0.528,-4.128 0,-3.07197 1.072,-5.34397 3.216,-6.816 0.35199,0.032 0.75199,-0.17597 1.2,-0.624 0.44799,-0.47997 0.81599,-0.73597 1.104,-0.768 1.11999,-0.57597 2.41599,-0.86397 3.888,-0.864 1.69599,3e-5 3.82398,0.41603 6.384,1.248 0.67198,-0.096 1.32798,-0.20797 1.968,-0.336 0.79998,-0.19197 1.40798,-0.51197 1.824,-0.96 0.12798,-0.032 0.27198,-0.048 0.432,-0.048 0.92798,3e-5 1.43998,0.38403 1.536,1.152 -0.096,0.76803 -0.016,1.76003 0.24,2.976 0.28797,1.37603 0.43197,2.32003 0.432,2.832 -3e-5,0.41603 -0.064,0.80003 -0.192,1.152 -0.73602,-0.31997 -2.43202,-1.48797 -5.088,-3.504 -2.01602,-1.53597 -3.84002,-2.31997 -5.472,-2.352 -3.71201,-0.064 -6.30401,0.99203 -7.776,3.168 -0.32001,1.60003 -0.48001,2.60803 -0.48,3.024 -10e-6,0.73603 0.15999,1.36002 0.48,1.872 1.37599,1.50402 3.16799,2.75202 5.376,3.744 0.89599,0.38402 2.94398,1.08802 6.144,2.112 2.55998,0.83202 4.54398,1.68002 5.952,2.544 2.14397,1.60001 3.21597,4.09601 3.216,7.488 -3e-5,1.08801 -0.11203,2.24001 -0.336,3.456"
         style=""
         id="path3099" />
      <path
         d="m 340.06732,497.80008 c -1.66402,2.688 -4.40002,4.032 -8.208,4.032 -0.70401,0 -1.39201,-0.048 -2.064,-0.144 -2.36801,-0.672 -4.38401,-2.032 -6.048,-4.08 -1.664,-2.048 -2.576,-4.28799 -2.736,-6.72 -0.128,-2.01599 0.224,-3.96799 1.056,-5.856 0.96,-2.04798 2.33599,-3.55198 4.128,-4.512 1.31199,-1.47198 3.11999,-2.20798 5.424,-2.208 1.47199,2e-5 2.81598,0.33602 4.032,1.008 1.24798,0.67202 2.14398,1.60002 2.688,2.784 0.38398,0.80002 0.76798,1.58402 1.152,2.352 0.44798,0.92801 0.67198,1.76001 0.672,2.496 -2e-5,0.32001 -0.032,0.64001 -0.096,0.96 l -1.104,0.48 c -0.064,10e-6 -2.22402,-0.08 -6.48,-0.24 -2.56001,-0.096 -4.65601,-0.11199 -6.288,-0.048 -0.48001,0.44801 -0.72001,1.07201 -0.72,1.872 -1e-5,0.32001 0.064,0.91201 0.192,1.776 0.12799,0.73601 0.17599,1.31201 0.144,1.728 1.75999,3.712 3.80799,5.616 6.144,5.712 0.51199,0.064 1.00799,0.096 1.488,0.096 2.36798,0 4.27198,-0.864 5.712,-2.592 0.22398,-0.064 0.44798,-0.016 0.672,0.144 0.25598,0.16 0.38398,0.336 0.384,0.528 -2e-5,0.16 -0.048,0.304 -0.144,0.432 m -4.512,-13.296 c -0.16002,-0.22398 -0.32002,-0.73598 -0.48,-1.536 -0.12802,-0.63998 -0.40002,-1.08798 -0.816,-1.344 -1.21601,-0.70398 -2.36801,-1.05598 -3.456,-1.056 -0.64001,2e-5 -1.21601,0.12802 -1.728,0.384 -0.57601,0.54402 -1.15201,1.10402 -1.728,1.68 -0.70401,0.70402 -1.05601,1.40802 -1.056,2.112 -10e-6,0.25601 0.032,0.51201 0.096,0.768 0.67199,0.51201 1.59999,0.81601 2.784,0.912 -10e-6,10e-6 0.95999,10e-6 2.88,0 2.01598,10e-6 3.18398,-0.63999 3.504,-1.92"
         style=""
         id="path3101" />
      <path
         d="m 360.18532,482.58408 c -0.64002,1.02402 -1.63202,1.53602 -2.976,1.536 -0.25602,2e-5 -0.52802,-0.016 -0.816,-0.048 -1.15202,-0.51198 -2.32001,-0.76798 -3.504,-0.768 -0.76801,2e-5 -1.45601,0.12802 -2.064,0.384 -0.99201,0.96001 -1.48801,2.35201 -1.488,4.176 -10e-6,0.51201 0.064,1.40801 0.192,2.688 0.096,1.15201 0.12799,2.01601 0.096,2.592 0.032,0.22401 0.048,0.48001 0.048,0.768 -10e-6,0.28801 -0.032,0.752 -0.096,1.392 -0.032,0.64 -0.048,1.12 -0.048,1.44 -10e-6,1.312 0.43199,2.176 1.296,2.592 -0.22401,-0.032 0.23999,-0.064 1.392,-0.096 0.54399,0 0.91199,0.192 1.104,0.576 0.19199,1.056 -0.41601,1.584 -1.824,1.584 -0.80001,-0.16 -1.71201,-0.24 -2.736,-0.24 -0.48001,0 -1.16801,0.016 -2.064,0.048 -0.86401,0.064 -1.52001,0.096 -1.968,0.096 -0.576,0 -1.104,-0.032 -1.584,-0.096 -0.32,-0.032 -0.544,-0.224 -0.672,-0.576 -0.096,-0.352 -0.064,-0.688 0.096,-1.008 0.608,-0.224 1.232,-0.464 1.872,-0.72 0.64,-0.256 0.91199,-0.784 0.816,-1.584 -0.096,-0.608 -0.14401,-1.264 -0.144,-1.968 -10e-6,-0.672 0.048,-1.67999 0.144,-3.024 0.12799,-1.37599 0.19199,-2.38399 0.192,-3.024 -10e-6,-1.98399 -0.368,-3.69599 -1.104,-5.136 -0.8,-0.54398 -1.232,-0.83198 -1.296,-0.864 -0.448,-0.38398 -0.672,-0.81598 -0.672,-1.296 0,-0.15998 0.016,-0.33598 0.048,-0.528 0.48,-0.60798 1.328,-1.18398 2.544,-1.728 1.43999,-0.57598 2.39999,-1.05598 2.88,-1.44 0.12799,-0.064 0.23999,-0.096 0.336,-0.096 0.70399,2e-5 1.11999,0.46402 1.248,1.392 -0.032,-0.19198 -0.048,0.38402 -0.048,1.728 -10e-6,0.67202 0.23999,1.02402 0.72,1.056 2.04799,-2.49598 4.59199,-3.74398 7.632,-3.744 0.38398,2e-5 0.76798,0.016 1.152,0.048 1.08798,0.73602 1.63198,1.64802 1.632,2.736 -2e-5,0.41602 -0.11202,0.80002 -0.336,1.152"
         style=""
         id="path3103" />
      <path
         d="m 371.08207,470.72808 c -0.32001,0.51203 -0.81601,0.88003 -1.488,1.104 -0.54401,0.16003 -1.08801,0.32003 -1.632,0.48 -1.34401,-0.67197 -2.24001,-1.35997 -2.688,-2.064 -0.032,-0.22397 -0.048,-0.44797 -0.048,-0.672 -10e-6,-1.11997 0.38399,-2.09597 1.152,-2.928 0.51199,-0.38397 1.13599,-0.57597 1.872,-0.576 1.31199,3e-5 2.25599,0.48003 2.832,1.44 0.54399,1.21603 0.54399,2.28803 0,3.216 m 1.776,30.288 c -1.79201,0.288 -3.42401,0.432 -4.896,0.432 -1.76001,0 -3.312,-0.208 -4.656,-0.624 -0.032,-0.64 0.4,-1.024 1.296,-1.152 0.92799,-0.16 1.45599,-0.544 1.584,-1.152 0.12799,-1.408 0.19199,-3.392 0.192,-5.952 -10e-6,-2.55999 0.064,-4.52799 0.192,-5.904 -0.51201,-1.43999 -1.23201,-2.39998 -2.16,-2.88 -0.864,0.12802 -1.328,-0.11198 -1.392,-0.72 0,-0.79998 0.48,-1.40798 1.44,-1.824 0.79999,-0.35198 1.61599,-0.70398 2.448,-1.056 0.096,-0.032 0.54399,-0.25598 1.344,-0.672 0.54399,-0.25598 0.99199,-0.38398 1.344,-0.384 0.19199,2e-5 0.38399,0.032 0.576,0.096 0.28799,2.72002 0.15999,5.34402 -0.384,7.872 0.25599,0.73601 0.38399,1.66401 0.384,2.784 -1e-5,0.54401 -0.048,1.37601 -0.144,2.496 -0.064,1.12001 -0.096,1.95201 -0.096,2.496 -10e-6,2.112 0.54399,3.696 1.632,4.752 0.44799,-0.064 0.87999,0.112 1.296,0.528 l 0,0.864"
         style=""
         id="path3105" />
      <path
         d="m 393.59857,497.80008 c -1.66402,2.688 -4.40002,4.032 -8.208,4.032 -0.70401,0 -1.39201,-0.048 -2.064,-0.144 -2.36801,-0.672 -4.38401,-2.032 -6.048,-4.08 -1.664,-2.048 -2.576,-4.28799 -2.736,-6.72 -0.128,-2.01599 0.224,-3.96799 1.056,-5.856 0.96,-2.04798 2.33599,-3.55198 4.128,-4.512 1.31199,-1.47198 3.11999,-2.20798 5.424,-2.208 1.47199,2e-5 2.81598,0.33602 4.032,1.008 1.24798,0.67202 2.14398,1.60002 2.688,2.784 0.38398,0.80002 0.76798,1.58402 1.152,2.352 0.44798,0.92801 0.67198,1.76001 0.672,2.496 -2e-5,0.32001 -0.032,0.64001 -0.096,0.96 l -1.104,0.48 c -0.064,10e-6 -2.22402,-0.08 -6.48,-0.24 -2.56001,-0.096 -4.65601,-0.11199 -6.288,-0.048 -0.48001,0.44801 -0.72001,1.07201 -0.72,1.872 -1e-5,0.32001 0.064,0.91201 0.192,1.776 0.12799,0.73601 0.17599,1.31201 0.144,1.728 1.75999,3.712 3.80799,5.616 6.144,5.712 0.51199,0.064 1.00799,0.096 1.488,0.096 2.36798,0 4.27198,-0.864 5.712,-2.592 0.22398,-0.064 0.44798,-0.016 0.672,0.144 0.25598,0.16 0.38398,0.336 0.384,0.528 -2e-5,0.16 -0.048,0.304 -0.144,0.432 m -4.512,-13.296 c -0.16002,-0.22398 -0.32002,-0.73598 -0.48,-1.536 -0.12802,-0.63998 -0.40002,-1.08798 -0.816,-1.344 -1.21601,-0.70398 -2.36801,-1.05598 -3.456,-1.056 -0.64001,2e-5 -1.21601,0.12802 -1.728,0.384 -0.57601,0.54402 -1.15201,1.10402 -1.728,1.68 -0.70401,0.70402 -1.05601,1.40802 -1.056,2.112 -10e-6,0.25601 0.032,0.51201 0.096,0.768 0.67199,0.51201 1.59999,0.81601 2.784,0.912 -10e-6,10e-6 0.95999,10e-6 2.88,0 2.01598,10e-6 3.18398,-0.63999 3.504,-1.92"
         style=""
         id="path3107" />
      <path
         d="m 412.16932,494.68008 c 0.064,0.288 0.096,0.56 0.096,0.816 -2e-5,0.704 -0.20802,1.456 -0.624,2.256 -0.032,0.064 -0.44802,0.736 -1.248,2.016 -1.66401,1.312 -3.71201,1.968 -6.144,1.968 -1.31201,0 -2.68801,-0.192 -4.128,-0.576 -0.16001,0.032 -0.41601,0.16 -0.768,0.384 -0.32,0.224 -0.576,0.336 -0.768,0.336 -0.192,0 -0.384,-0.112 -0.576,-0.336 -0.736,-1.632 -1.104,-3.056 -1.104,-4.272 0,-0.736 0.144,-1.36 0.432,-1.872 0.448,-0.032 0.912,0.24 1.392,0.816 0.51199,0.672 0.94399,1.056 1.296,1.152 1.47199,1.824 3.26399,2.784 5.376,2.88 0.67199,-0.128 1.35999,-0.288 2.064,-0.48 0.73599,-0.192 1.29599,-0.64 1.68,-1.344 0.38398,-0.736 0.43198,-1.984 0.144,-3.744 -0.89601,-0.99199 -2.41601,-1.82399 -4.56,-2.496 -2.62401,-0.79999 -4.25601,-1.39199 -4.896,-1.776 -1.536,-0.95999 -2.336,-2.46399 -2.4,-4.512 -0.128,-3.29598 0.96,-5.51998 3.264,-6.672 0.79999,-0.38398 1.74399,-0.57598 2.832,-0.576 1.18399,2e-5 2.14399,0.25602 2.88,0.768 l 2.88,-0.288 c 0.44798,0.19202 0.71998,0.67202 0.816,1.44 0.096,0.89602 0.31998,1.48802 0.672,1.776 -0.064,0.12802 -0.096,0.28802 -0.096,0.48 -2e-5,0.16002 0.032,0.38402 0.096,0.672 0.096,0.28802 0.14398,0.49602 0.144,0.624 -2e-5,0.28802 -0.11202,0.52801 -0.336,0.72 -1.08802,-0.92798 -2.17601,-1.85598 -3.264,-2.784 -1.24801,-1.02398 -2.44801,-1.53598 -3.6,-1.536 -0.44801,2e-5 -0.91201,0.064 -1.392,0.192 -0.83201,2e-5 -1.60001,0.70402 -2.304,2.112 -0.19201,0.35202 -0.28801,0.68802 -0.288,1.008 -1e-5,0.92801 0.68799,1.85601 2.064,2.784 3.13599,0.89601 5.31199,1.71201 6.528,2.448 2.33598,1.40801 3.61598,3.28001 3.84,5.616"
         style=""
         id="path3109" />
      <path
         d="m 461.92732,488.34408 c -0.73604,3.68001 -2.89603,7.2 -6.48,10.56 -3.07203,2.272 -6.72002,3.408 -10.944,3.408 -3.52002,0 -6.62401,-0.832 -9.312,-2.496 -3.42401,-2.752 -5.648,-5.74399 -6.672,-8.976 -0.064,-0.47999 -0.272,-1.37599 -0.624,-2.688 -0.32,-1.11999 -0.48,-2.01599 -0.48,-2.688 0,-0.47999 0.064,-0.94398 0.192,-1.392 0.544,-7.67998 3.07199,-12.89597 7.584,-15.648 3.29599,-2.01597 6.91198,-3.02397 10.848,-3.024 2.11198,3e-5 4.04797,0.33603 5.808,1.008 2.81597,0.73603 5.50397,3.13603 8.064,7.2 1.66396,2.62402 2.49596,5.85602 2.496,9.696 -4e-5,1.66401 -0.16004,3.34401 -0.48,5.04 m -5.568,-10.272 c -0.67203,-1.31198 -1.00803,-2.43198 -1.008,-3.36 -0.80003,-2.14397 -2.22403,-3.79197 -4.272,-4.944 -1.82402,-1.05597 -3.90402,-1.58397 -6.24,-1.584 -4.80002,3e-5 -8.24001,2.17603 -10.32,6.528 -1.02401,4.51202 -1.53601,8.20802 -1.536,11.088 -10e-6,5.21601 1.50399,9.152 4.512,11.808 1.85599,1.664 4.27198,2.496 7.248,2.496 2.14398,0 4.11198,-0.464 5.904,-1.392 3.96797,-2.464 5.95197,-7.03999 5.952,-13.728 -3e-5,-0.92798 -0.032,-2.09598 -0.096,-3.504 -0.096,-1.88798 -0.14403,-3.02398 -0.144,-3.408"
         style=""
         id="path3111" />
      <path
         d="m 484.12282,482.58408 c -0.64002,1.02402 -1.63202,1.53602 -2.976,1.536 -0.25602,2e-5 -0.52802,-0.016 -0.816,-0.048 -1.15202,-0.51198 -2.32001,-0.76798 -3.504,-0.768 -0.76801,2e-5 -1.45601,0.12802 -2.064,0.384 -0.99201,0.96001 -1.48801,2.35201 -1.488,4.176 -10e-6,0.51201 0.064,1.40801 0.192,2.688 0.096,1.15201 0.12799,2.01601 0.096,2.592 0.032,0.22401 0.048,0.48001 0.048,0.768 -10e-6,0.28801 -0.032,0.752 -0.096,1.392 -0.032,0.64 -0.048,1.12 -0.048,1.44 -10e-6,1.312 0.43199,2.176 1.296,2.592 -0.22401,-0.032 0.23999,-0.064 1.392,-0.096 0.54399,0 0.91199,0.192 1.104,0.576 0.19199,1.056 -0.41601,1.584 -1.824,1.584 -0.80001,-0.16 -1.71201,-0.24 -2.736,-0.24 -0.48001,0 -1.16801,0.016 -2.064,0.048 -0.86401,0.064 -1.52001,0.096 -1.968,0.096 -0.576,0 -1.104,-0.032 -1.584,-0.096 -0.32,-0.032 -0.544,-0.224 -0.672,-0.576 -0.096,-0.352 -0.064,-0.688 0.096,-1.008 0.608,-0.224 1.232,-0.464 1.872,-0.72 0.64,-0.256 0.91199,-0.784 0.816,-1.584 -0.096,-0.608 -0.14401,-1.264 -0.144,-1.968 -10e-6,-0.672 0.048,-1.67999 0.144,-3.024 0.12799,-1.37599 0.19199,-2.38399 0.192,-3.024 -10e-6,-1.98399 -0.368,-3.69599 -1.104,-5.136 -0.8,-0.54398 -1.232,-0.83198 -1.296,-0.864 -0.448,-0.38398 -0.672,-0.81598 -0.672,-1.296 0,-0.15998 0.016,-0.33598 0.048,-0.528 0.48,-0.60798 1.328,-1.18398 2.544,-1.728 1.43999,-0.57598 2.39999,-1.05598 2.88,-1.44 0.12799,-0.064 0.23999,-0.096 0.336,-0.096 0.70399,2e-5 1.11999,0.46402 1.248,1.392 -0.032,-0.19198 -0.048,0.38402 -0.048,1.728 -10e-6,0.67202 0.23999,1.02402 0.72,1.056 2.04799,-2.49598 4.59199,-3.74398 7.632,-3.744 0.38398,2e-5 0.76798,0.016 1.152,0.048 1.08798,0.73602 1.63198,1.64802 1.632,2.736 -2e-5,0.41602 -0.11202,0.80002 -0.336,1.152"
         style=""
         id="path3113" />
      <path
         d="m 510.12757,479.84808 c -3e-5,0.83202 -0.016,1.32802 -0.048,1.488 -0.12803,0.51202 -0.44803,0.84802 -0.96,1.008 -0.16003,0.032 -0.33603,0.048 -0.528,0.048 -0.38403,2e-5 -0.92803,-0.12798 -1.632,-0.384 -0.70402,-0.28798 -1.20002,-0.43198 -1.488,-0.432 -0.48002,2e-5 -0.88002,0.25602 -1.2,0.768 0.63998,1.63202 0.95998,3.00801 0.96,4.128 -2e-5,1.05601 -0.25602,2.00001 -0.768,2.832 -1.82402,2.91201 -5.45602,4.36801 -10.896,4.368 -0.73601,1e-5 -1.79201,-0.032 -3.168,-0.096 -0.032,0.064 -0.20801,0.25601 -0.528,0.576 -0.28801,0.32001 -0.43201,0.592 -0.432,0.816 -1e-5,0.096 0.016,0.208 0.048,0.336 1.05599,0.576 2.47999,1.024 4.272,1.344 1.53599,0.224 3.07199,0.464 4.608,0.72 4.15998,0 6.94398,1.328 8.352,3.984 0.38398,0.672 0.57598,1.472 0.576,2.4 -2e-5,1.31199 -0.35202,2.38399 -1.056,3.216 -2.24002,2.14399 -5.42402,3.21599 -9.552,3.216 -3.42401,-10e-6 -6.59201,-0.67201 -9.504,-2.016 -1.216,-0.92801 -1.936,-1.69601 -2.16,-2.304 -0.128,-0.35201 -0.192,-0.68801 -0.192,-1.008 0,-0.96 0.432,-1.824 1.296,-2.592 0.16,-0.224 0.784,-0.608 1.872,-1.152 0.76799,-0.416 1.16799,-0.928 1.2,-1.536 -0.16001,-0.128 -1.05601,-0.56 -2.688,-1.296 -0.192,-0.384 -0.288,-0.768 -0.288,-1.152 0,-1.376 0.784,-2.496 2.352,-3.36 0.31999,10e-6 0.60799,-0.12799 0.864,-0.384 0.28799,-0.25599 0.43199,-0.51199 0.432,-0.768 -0.57601,-0.67199 -1.16801,-1.35999 -1.776,-2.064 -0.608,-0.73599 -1.072,-1.45599 -1.392,-2.16 l 0.096,-4.464 2.4,-3.216 c 1.98399,-1.50398 4.30399,-2.25598 6.96,-2.256 2.75198,2e-5 4.97598,0.86402 6.672,2.592 0.63998,-0.032 1.45598,-0.38398 2.448,-1.056 1.02398,-0.70398 1.80798,-1.11998 2.352,-1.248 0.47997,0.096 0.97597,0.20802 1.488,0.336 0.51197,0.096 0.84797,0.35202 1.008,0.768 m -10.56,10.032 c 0.38398,-1.11999 0.57598,-2.22399 0.576,-3.312 -2e-5,-1.91999 -0.59202,-3.56798 -1.776,-4.944 -1.18401,-0.63998 -2.35201,-0.95998 -3.504,-0.96 -0.28801,2e-5 -0.57601,0.016 -0.864,0.048 -1.05601,0.64002 -1.88801,1.64802 -2.496,3.024 -0.22401,0.73602 -0.33601,1.53601 -0.336,2.4 -1e-5,1.50401 0.30399,2.80001 0.912,3.888 1.18399,1.60001 2.68799,2.32001 4.512,2.16 0.57599,-0.032 1.13598,-0.31999 1.68,-0.864 0.41598,-0.47999 0.84798,-0.95999 1.296,-1.44 m 4.896,13.776 -2.016,-1.2 c -0.83202,-0.064 -2.28802,-0.4 -4.368,-1.008 -1.95201,-0.576 -3.45601,-0.864 -4.512,-0.864 -1.60001,0 -2.96001,0.56 -4.08,1.68 -0.60801,0.992 -0.91201,1.68 -0.912,2.064 -1e-5,0.28799 0.08,0.55999 0.24,0.816 1.11999,2.01599 3.24799,3.02399 6.384,3.024 1.08799,-10e-6 3.43998,-0.30401 7.056,-0.912 1.47198,-0.57601 2.20798,-1.77601 2.208,-3.6"
         style=""
         id="path3115" />
      <path
         d="m 534.19507,496.84008 c 0.12798,0.256 0.19198,0.496 0.192,0.72 -2e-5,0.448 -0.27202,1.008 -0.816,1.68 -0.67202,0.832 -1.05602,1.36 -1.152,1.584 -1.08802,0.448 -2.35202,0.624 -3.792,0.528 -0.32002,-0.16 -0.80002,-0.672 -1.44,-1.536 -0.51202,-0.704 -0.99202,-1.056 -1.44,-1.056 -0.28802,0 -0.59202,0.096 -0.912,0.288 -1.72801,1.568 -3.82401,2.352 -6.288,2.352 -1.44001,0 -2.73601,-0.32 -3.888,-0.96 -1.632,-0.896 -2.448,-2.464 -2.448,-4.704 0,-0.32 0.016,-0.64 0.048,-0.96 1.376,-2.55999 3.66399,-4.12799 6.864,-4.704 0.25599,-0.064 1.45599,-0.33599 3.6,-0.816 1.43999,-0.31999 2.57598,-0.70399 3.408,-1.152 -0.032,-1.37599 -0.08,-2.73599 -0.144,-4.08 -0.16002,-1.50398 -0.72002,-2.60798 -1.68,-3.312 -0.92801,-0.47998 -2.11201,-0.51198 -3.552,-0.096 -0.76801,0.96002 -1.53601,1.90402 -2.304,2.832 -0.96001,1.12002 -1.93601,1.68001 -2.928,1.68 -0.19201,10e-6 -0.38401,-0.016 -0.576,-0.048 -0.736,-0.31999 -1.392,-0.81598 -1.968,-1.488 -0.064,-0.22398 -0.096,-0.44798 -0.096,-0.672 0,-1.02398 0.48,-1.91998 1.44,-2.688 0.288,-0.19198 1.23199,-0.73598 2.832,-1.632 2.71999,-0.38398 4.67199,-0.57598 5.856,-0.576 0.83199,2e-5 1.63199,0.064 2.4,0.192 l 2.496,1.104 c 1.34398,1.60002 2.01598,3.72802 2.016,6.384 -2e-5,0.86401 -0.096,2.20801 -0.288,4.032 -0.16002,1.79201 -0.24002,3.12001 -0.24,3.984 -2e-5,1.184 0.096,2.224 0.288,3.12 1.05598,1.056 1.75998,1.584 2.112,1.584 0.25598,0 0.52798,-0.096 0.816,-0.288 l 1.584,-1.296 m -8.256,-5.664 -0.432,-0.624 c -3.10401,0.38401 -5.42401,1.18401 -6.96,2.4 -0.83201,1.12001 -1.20001,2.56 -1.104,4.32 0.31999,0.512 0.81599,0.976 1.488,1.392 0.54399,0.192 1.08799,0.288 1.632,0.288 1.72799,0 3.43999,-0.992 5.136,-2.976 l 0.24,-4.8"
         style=""
         id="path3117" />
      <path
         d="m 561.48007,500.63208 -0.528,0.384 c -0.64003,0 -1.69602,0.016 -3.168,0.048 -1.37602,0 -2.44802,-0.016 -3.216,-0.048 -1.15202,-0.032 -2.20802,-0.16 -3.168,-0.384 -0.12802,-0.16 -0.19202,-0.32 -0.192,-0.48 -2e-5,-0.384 0.36798,-0.816 1.104,-1.296 1.43998,0 2.15998,-0.528 2.16,-1.584 0.064,-0.448 0.096,-0.912 0.096,-1.392 -2e-5,-0.608 -0.08,-1.53599 -0.24,-2.784 -0.16002,-1.24799 -0.24002,-2.17599 -0.24,-2.784 -2e-5,-0.92799 0.12798,-1.77599 0.384,-2.544 -0.096,-1.11999 -0.20802,-2.25599 -0.336,-3.408 -0.25602,-1.21598 -0.94402,-2.09598 -2.064,-2.64 -0.54402,-0.22398 -1.10402,-0.33598 -1.68,-0.336 -0.92801,2e-5 -1.98401,0.25602 -3.168,0.768 -1.02401,0.48002 -2.03201,0.96002 -3.024,1.44 l -0.48,0.816 c 0.12799,0.80001 0.19199,1.69601 0.192,2.688 -10e-6,0.70401 -0.048,1.76001 -0.144,3.168 -0.064,1.40801 -0.096,2.44801 -0.096,3.12 -10e-6,1.952 0.25599,3.6 0.768,4.944 0.12799,0.416 0.67199,0.688 1.632,0.816 0.83199,0.096 1.24799,0.336 1.248,0.72 -10e-6,0.192 -0.064,0.448 -0.192,0.768 l -0.432,0.384 -8.976,-0.192 c -0.128,-0.288 -0.192,-0.544 -0.192,-0.768 0,-0.256 0.064,-0.528 0.192,-0.816 1.216,-0.224 2,-0.88 2.352,-1.968 0.25599,-0.672 0.33599,-1.776 0.24,-3.312 -0.096,-1.66399 -0.096,-2.76799 0,-3.312 -0.12801,-0.47999 -0.19201,-1.47199 -0.192,-2.976 -1e-5,-1.37599 -0.12801,-2.38399 -0.384,-3.024 -0.416,-0.99198 -1.184,-1.64798 -2.304,-1.968 -0.384,-0.44798 -0.576,-0.86398 -0.576,-1.248 0,-0.19198 0.064,-0.36798 0.192,-0.528 0.736,-0.12798 1.824,-0.62398 3.264,-1.488 1.31199,-0.79998 2.38399,-1.19998 3.216,-1.2 l 0.384,0.576 c 0.032,0.12802 0.048,0.25602 0.048,0.384 -10e-6,0.25602 -0.11201,0.65602 -0.336,1.2 -0.19201,0.54402 -0.28801,0.92802 -0.288,1.152 -10e-6,0.48002 0.28799,0.83202 0.864,1.056 1.47199,-0.95998 2.92799,-1.91998 4.368,-2.88 1.69598,-1.02398 3.23198,-1.53598 4.608,-1.536 1.02398,2e-5 2.06398,0.27202 3.12,0.816 1.50398,1.88802 2.25598,4.70402 2.256,8.448 -2e-5,0.70401 -0.032,1.77601 -0.096,3.216 -0.064,1.44001 -0.096,2.49601 -0.096,3.168 -2e-5,1.728 0.14398,3.168 0.432,4.32 0.57598,0.256 1.15197,0.496 1.728,0.72 0.67197,0.32 1.00797,0.768 1.008,1.344 -3e-5,0.128 -0.016,0.272 -0.048,0.432"
         style=""
         id="path3119" />
      <path
         d="m 572.92582,470.72808 c -0.32001,0.51203 -0.81601,0.88003 -1.488,1.104 -0.54401,0.16003 -1.08801,0.32003 -1.632,0.48 -1.34401,-0.67197 -2.24001,-1.35997 -2.688,-2.064 -0.032,-0.22397 -0.048,-0.44797 -0.048,-0.672 -1e-5,-1.11997 0.38399,-2.09597 1.152,-2.928 0.51199,-0.38397 1.13599,-0.57597 1.872,-0.576 1.31199,3e-5 2.25599,0.48003 2.832,1.44 0.54399,1.21603 0.54399,2.28803 0,3.216 m 1.776,30.288 c -1.79201,0.288 -3.42401,0.432 -4.896,0.432 -1.76001,0 -3.312,-0.208 -4.656,-0.624 -0.032,-0.64 0.4,-1.024 1.296,-1.152 0.92799,-0.16 1.45599,-0.544 1.584,-1.152 0.12799,-1.408 0.19199,-3.392 0.192,-5.952 -10e-6,-2.55999 0.064,-4.52799 0.192,-5.904 -0.51201,-1.43999 -1.23201,-2.39998 -2.16,-2.88 -0.864,0.12802 -1.328,-0.11198 -1.392,-0.72 0,-0.79998 0.48,-1.40798 1.44,-1.824 0.79999,-0.35198 1.61599,-0.70398 2.448,-1.056 0.096,-0.032 0.54399,-0.25598 1.344,-0.672 0.54399,-0.25598 0.99199,-0.38398 1.344,-0.384 0.19199,2e-5 0.38399,0.032 0.576,0.096 0.28799,2.72002 0.15999,5.34402 -0.384,7.872 0.25599,0.73601 0.38399,1.66401 0.384,2.784 -10e-6,0.54401 -0.048,1.37601 -0.144,2.496 -0.064,1.12001 -0.096,1.95201 -0.096,2.496 -10e-6,2.112 0.54399,3.696 1.632,4.752 0.44799,-0.064 0.87999,0.112 1.296,0.528 l 0,0.864"
         style=""
         id="path3121" />
      <path
         d="m 598.12882,480.13608 c 0.096,0.83202 -0.27202,1.55202 -1.104,2.16 -0.70402,0.48002 -1.39202,0.96002 -2.064,1.44 -1.56802,1.79201 -3.40802,4.12801 -5.52,7.008 -3.36001,4.608 -5.07201,6.96 -5.136,7.056 -0.064,0.224 0.12799,0.56 0.576,1.008 2.46399,-0.064 4.44799,-0.32 5.952,-0.768 2.04798,-0.608 3.72798,-1.648 5.04,-3.12 0.41598,-0.288 1.03998,-0.43199 1.872,-0.432 0.28798,0.448 0.43198,0.912 0.432,1.392 -2e-5,0.512 -0.22402,1.248 -0.672,2.208 -0.41602,0.96 -0.64002,1.696 -0.672,2.208 -0.48002,0.672 -1.31202,1.008 -2.496,1.008 -0.28802,0 -0.68802,-0.032 -1.2,-0.096 -0.51202,-0.032 -0.86402,-0.048 -1.056,-0.048 -2.14401,-0.288 -4.25601,-0.432 -6.336,-0.432 -2.04801,0 -4.19201,0.144 -6.432,0.432 -0.64,-0.192 -0.96,-0.624 -0.96,-1.296 0,-0.384 0.08,-0.768 0.24,-1.152 1.792,-2.08 3.83999,-4.75199 6.144,-8.016 3.51999,-5.02399 5.42399,-7.74398 5.712,-8.16 0.064,-0.19198 0.016,-0.36798 -0.144,-0.528 -0.28801,-0.25598 -0.43201,-0.38398 -0.432,-0.384 -3.96801,-0.31998 -7.05601,0.91202 -9.264,3.696 -0.736,-0.12799 -1.104,-0.46399 -1.104,-1.008 0,-0.22398 0.096,-0.62398 0.288,-1.2 0.192,-0.60798 0.288,-1.07198 0.288,-1.392 0,-0.15998 -0.032,-0.31998 -0.096,-0.48 0.288,-0.41598 0.79999,-1.00798 1.536,-1.776 2.23999,0.032 7.55199,-0.11198 15.936,-0.432 l 0.672,1.104"
         style=""
         id="path3123" />
      <path
         d="m 620.09857,497.80008 c -1.66402,2.688 -4.40002,4.032 -8.208,4.032 -0.70401,0 -1.39201,-0.048 -2.064,-0.144 -2.36801,-0.672 -4.38401,-2.032 -6.048,-4.08 -1.664,-2.048 -2.576,-4.28799 -2.736,-6.72 -0.128,-2.01599 0.224,-3.96799 1.056,-5.856 0.96,-2.04798 2.33599,-3.55198 4.128,-4.512 1.31199,-1.47198 3.11999,-2.20798 5.424,-2.208 1.47199,2e-5 2.81598,0.33602 4.032,1.008 1.24798,0.67202 2.14398,1.60002 2.688,2.784 0.38398,0.80002 0.76798,1.58402 1.152,2.352 0.44798,0.92801 0.67198,1.76001 0.672,2.496 -2e-5,0.32001 -0.032,0.64001 -0.096,0.96 l -1.104,0.48 c -0.064,10e-6 -2.22402,-0.08 -6.48,-0.24 -2.56001,-0.096 -4.65601,-0.11199 -6.288,-0.048 -0.48001,0.44801 -0.72001,1.07201 -0.72,1.872 -10e-6,0.32001 0.064,0.91201 0.192,1.776 0.12799,0.73601 0.17599,1.31201 0.144,1.728 1.75999,3.712 3.80799,5.616 6.144,5.712 0.51199,0.064 1.00799,0.096 1.488,0.096 2.36798,0 4.27198,-0.864 5.712,-2.592 0.22398,-0.064 0.44798,-0.016 0.672,0.144 0.25598,0.16 0.38398,0.336 0.384,0.528 -2e-5,0.16 -0.048,0.304 -0.144,0.432 m -4.512,-13.296 c -0.16002,-0.22398 -0.32002,-0.73598 -0.48,-1.536 -0.12802,-0.63998 -0.40002,-1.08798 -0.816,-1.344 -1.21601,-0.70398 -2.36801,-1.05598 -3.456,-1.056 -0.64001,2e-5 -1.21601,0.12802 -1.728,0.384 -0.57601,0.54402 -1.15201,1.10402 -1.728,1.68 -0.70401,0.70402 -1.05601,1.40802 -1.056,2.112 -1e-5,0.25601 0.032,0.51201 0.096,0.768 0.67199,0.51201 1.59999,0.81601 2.784,0.912 -1e-5,10e-6 0.95999,10e-6 2.88,0 2.01598,10e-6 3.18398,-0.63999 3.504,-1.92"
         style=""
         id="path3125" />
      <path
         d="m 640.21657,482.58408 c -0.64002,1.02402 -1.63202,1.53602 -2.976,1.536 -0.25602,2e-5 -0.52802,-0.016 -0.816,-0.048 -1.15202,-0.51198 -2.32001,-0.76798 -3.504,-0.768 -0.76801,2e-5 -1.45601,0.12802 -2.064,0.384 -0.99201,0.96001 -1.48801,2.35201 -1.488,4.176 -10e-6,0.51201 0.064,1.40801 0.192,2.688 0.096,1.15201 0.12799,2.01601 0.096,2.592 0.032,0.22401 0.048,0.48001 0.048,0.768 -10e-6,0.28801 -0.032,0.752 -0.096,1.392 -0.032,0.64 -0.048,1.12 -0.048,1.44 -10e-6,1.312 0.43199,2.176 1.296,2.592 -0.22401,-0.032 0.23999,-0.064 1.392,-0.096 0.54399,0 0.91199,0.192 1.104,0.576 0.19199,1.056 -0.41601,1.584 -1.824,1.584 -0.80001,-0.16 -1.71201,-0.24 -2.736,-0.24 -0.48001,0 -1.16801,0.016 -2.064,0.048 -0.86401,0.064 -1.52001,0.096 -1.968,0.096 -0.576,0 -1.104,-0.032 -1.584,-0.096 -0.32,-0.032 -0.544,-0.224 -0.672,-0.576 -0.096,-0.352 -0.064,-0.688 0.096,-1.008 0.608,-0.224 1.232,-0.464 1.872,-0.72 0.64,-0.256 0.91199,-0.784 0.816,-1.584 -0.096,-0.608 -0.14401,-1.264 -0.144,-1.968 -1e-5,-0.672 0.048,-1.67999 0.144,-3.024 0.12799,-1.37599 0.19199,-2.38399 0.192,-3.024 -10e-6,-1.98399 -0.368,-3.69599 -1.104,-5.136 -0.8,-0.54398 -1.232,-0.83198 -1.296,-0.864 -0.448,-0.38398 -0.672,-0.81598 -0.672,-1.296 0,-0.15998 0.016,-0.33598 0.048,-0.528 0.48,-0.60798 1.328,-1.18398 2.544,-1.728 1.43999,-0.57598 2.39999,-1.05598 2.88,-1.44 0.12799,-0.064 0.23999,-0.096 0.336,-0.096 0.70399,2e-5 1.11999,0.46402 1.248,1.392 -0.032,-0.19198 -0.048,0.38402 -0.048,1.728 -10e-6,0.67202 0.23999,1.02402 0.72,1.056 2.04799,-2.49598 4.59199,-3.74398 7.632,-3.744 0.38398,2e-5 0.76798,0.016 1.152,0.048 1.08798,0.73602 1.63198,1.64802 1.632,2.736 -2e-5,0.41602 -0.11202,0.80002 -0.336,1.152"
         style=""
         id="path3127" />
    </g>
    <g
       style="font-size:114.09844208px;font-style:normal;font-variant:normal;font-weight:normal;font-stretch:normal;text-align:start;line-height:125%;writing-mode:lr-tb;text-anchor:start;fill:#000000;fill-opacity:1;stroke:none;font-family:OldStyle 1;-inkscape-font-specification:'OldStyle 1,'"
       id="text2870">
      <path
         d="m 350.72037,416.91205 c -0.45648,10.19282 -4.56402,19.09249 -12.32263,26.69903 -3.72729,3.72723 -8.36729,6.35149 -13.92001,7.8728 -4.25974,1.21705 -9.62236,1.90164 -16.08788,2.05377 -5.47677,0.15213 -10.95349,0.26623 -16.43018,0.34229 -3.80331,-0.22819 -7.60658,-0.34229 -11.40984,-0.34229 -3.8033,0 -7.64461,0.1141 -11.52394,0.34229 -0.53247,-0.30426 -1.06493,-0.60852 -1.59738,-0.91278 -0.4564,-0.30426 -0.6846,-0.72263 -0.68459,-1.25509 -10e-6,-0.22819 0.038,-0.45639 0.1141,-0.68459 0.83671,-1.29311 2.43409,-1.93967 4.79213,-1.93967 0.30425,0 0.72261,0.038 1.25508,0.1141 0.45638,0 0.83671,0 1.14099,0 2.43408,0 3.99343,-0.76065 4.67803,-2.28197 1.0649,-3.11868 1.59736,-6.6177 1.59738,-10.49706 -2e-5,-2.43408 -0.22821,-4.98227 -0.68459,-7.64459 0.45638,-6.00916 0.53244,-14.22424 0.2282,-24.64527 -0.30428,-10.49699 -0.22822,-18.48388 0.22819,-23.96067 -1.36919,-1.44517 -3.49903,-2.47206 -6.38951,-3.08066 -0.38034,8e-5 -1.06493,0.15221 -2.05377,0.4564 -0.9128,0.22827 -1.63542,0.34237 -2.16787,0.34229 -0.83673,8e-5 -1.55935,-0.26615 -2.16787,-0.79869 -0.91279,-0.83664 -1.36919,-1.7114 -1.36918,-2.62426 -10e-6,-0.45632 0.15212,-0.83664 0.45639,-1.14099 l 1.59738,-1.71147 c 1.44524,0.15221 3.34688,0.11418 5.70492,-0.1141 2.89048,-0.22812 4.71605,-0.34221 5.47673,-0.3423 1.44522,9e-5 2.70031,0.15222 3.76525,0.4564 1.74948,0.15221 3.68915,0.22828 5.81902,0.22819 1.74948,9e-5 4.41177,-0.076 7.98689,-0.22819 3.57504,-0.15205 6.23734,-0.22812 7.98689,-0.2282 7.53044,8e-5 13.61569,1.1791 18.25575,3.53705 1.59731,-0.15205 3.49895,0.53254 5.70492,2.05377 2.2819,1.44533 4.10747,2.16795 5.47673,2.16787 6.0091,3.80336 10.45894,9.31811 13.34951,16.54428 2.51008,6.38956 3.575,13.46366 3.19476,21.22231 m -17.22886,18.25575 c 3.34681,-6.69375 5.02025,-14.11014 5.02033,-22.2492 -8e-5,-8.13897 -1.67352,-15.28913 -5.02033,-21.4505 -5.32467,-9.5842 -15.28925,-14.37633 -29.8938,-14.37641 -2.66233,8e-5 -5.43873,0.15221 -8.32918,0.4564 -0.98889,0.53253 -2.24397,1.63548 -3.76525,3.30885 l -0.4564,46.66626 c -0.0761,5.62888 -0.0381,9.1279 0.1141,10.49706 0.30424,4.03149 1.29309,7.34034 2.96656,9.92656 4.10751,0.30427 7.64456,0.4564 10.61116,0.4564 14.68061,0 24.26487,-4.4118 28.75281,-13.23542"
         style=""
         id="path3130" />
      <path
         d="m 377.85619,381.99793 c -0.76068,1.21712 -1.9397,2.09187 -3.53706,2.62426 -1.29313,0.3804 -2.58625,0.76072 -3.87934,1.14098 -3.19477,-1.5973 -5.32461,-3.23271 -6.38951,-4.90623 -0.0761,-0.53238 -0.11412,-1.06484 -0.1141,-1.59738 -2e-5,-2.66222 0.91277,-4.98222 2.73836,-6.96 1.21703,-0.91271 2.70031,-1.3691 4.44984,-1.36918 3.11867,8e-5 5.3626,1.14106 6.73181,3.42295 1.29309,2.89057 1.29309,5.43877 0,7.6446 m 4.22164,71.99611 c -4.2597,0.68459 -8.13905,1.02689 -11.63804,1.02689 -4.18363,0 -7.87281,-0.49443 -11.06755,-1.48328 -0.0761,-1.52131 0.95081,-2.4341 3.08066,-2.73836 2.20589,-0.38033 3.46097,-1.29312 3.76525,-2.73837 0.30424,-3.34688 0.45637,-8.06294 0.45639,-14.1482 -2e-5,-6.08523 0.15212,-10.76326 0.45639,-14.03411 -1.21706,-3.42292 -2.92854,-5.70488 -5.13443,-6.84591 -2.05378,0.3043 -3.15673,-0.26619 -3.30885,-1.71148 -1e-5,-1.90159 1.14097,-3.34684 3.42295,-4.33574 1.90163,-0.83667 3.8413,-1.67339 5.81902,-2.51016 0.22818,-0.076 1.2931,-0.60848 3.19476,-1.59738 1.29309,-0.60847 2.35801,-0.91274 3.19475,-0.91279 0.45638,5e-5 0.91277,0.0761 1.36919,0.2282 0.68456,6.46562 0.3803,12.703 -0.91279,18.71214 0.6085,1.74954 0.91276,3.95545 0.91279,6.61771 -3e-5,1.29314 -0.11413,3.27085 -0.3423,5.93312 -0.15215,2.66232 -0.22822,4.64002 -0.2282,5.93312 -2e-5,5.02034 1.2931,8.78559 3.87935,11.29575 1.06489,-0.15213 2.09178,0.26623 3.08066,1.25508 l 0,2.05377"
         style=""
         id="path3132" />
      <path
         d="m 433.51662,410.18024 c -1.52136,2.43414 -3.87939,3.65119 -7.07411,3.65115 -0.60856,4e-5 -1.25512,-0.038 -1.93967,-0.1141 -2.7384,-1.21701 -5.51479,-1.82553 -8.32919,-1.82557 -1.8256,4e-5 -3.46101,0.3043 -4.90623,0.91278 -2.35806,2.28201 -3.53707,5.59086 -3.53705,9.92657 -2e-5,1.21708 0.15211,3.34691 0.45639,6.38951 0.22818,2.73839 0.30424,4.79216 0.2282,6.16132 0.076,0.53248 0.11408,1.141 0.1141,1.82557 -2e-5,0.68461 -0.0761,1.78756 -0.2282,3.30886 -0.0761,1.52132 -0.11412,2.66231 -0.1141,3.42295 -2e-5,3.1187 1.02687,5.17247 3.08066,6.16132 -0.53248,-0.0761 0.57047,-0.15213 3.30886,-0.2282 1.29308,0 2.16784,0.4564 2.62426,1.36918 0.45636,2.51017 -0.98888,3.76525 -4.33574,3.76525 -1.90167,-0.38033 -4.06953,-0.57049 -6.50361,-0.57049 -1.14101,0 -2.77641,0.038 -4.90623,0.1141 -2.05379,0.15213 -3.61313,0.22819 -4.67804,0.22819 -1.36919,0 -2.62427,-0.0761 -3.76525,-0.22819 -0.76066,-0.0761 -1.29312,-0.53246 -1.59738,-1.36919 -0.2282,-0.83672 -0.15213,-1.6354 0.2282,-2.39606 1.44524,-0.53246 2.92852,-1.10295 4.44984,-1.71148 1.5213,-0.60852 2.16786,-1.8636 1.93967,-3.76525 -0.22821,-1.44523 -0.34231,-3.00458 -0.34229,-4.67803 -2e-5,-1.59737 0.11408,-3.99343 0.34229,-7.18821 0.30425,-3.27079 0.45638,-5.66686 0.4564,-7.1882 -2e-5,-4.71603 -0.87477,-8.78554 -2.62427,-12.20853 -1.90165,-1.29308 -2.92853,-1.97767 -3.08066,-2.05377 -1.06492,-0.91275 -1.59738,-1.93963 -1.59737,-3.08066 -1e-5,-0.38028 0.038,-0.79864 0.11409,-1.25508 1.14098,-1.4452 3.15672,-2.81438 6.04722,-4.10755 3.42294,-1.36913 5.70491,-2.51011 6.84591,-3.42295 0.30424,-0.15208 0.57047,-0.22814 0.79869,-0.2282 1.67342,6e-5 2.66227,1.10301 2.96656,3.30886 -0.0761,-0.45635 -0.11412,0.91283 -0.1141,4.10754 -2e-5,1.59742 0.57047,2.43415 1.71147,2.51017 4.86818,-5.93307 10.91539,-8.89963 18.14166,-8.89968 0.91274,5e-5 1.82553,0.0381 2.73836,0.1141 2.58618,1.74956 3.8793,3.91743 3.87935,6.50361 -5e-5,0.9889 -0.26628,1.90168 -0.79869,2.73836"
         style=""
         id="path3134" />
      <path
         d="m 459.41876,381.99793 c -0.76069,1.21712 -1.9397,2.09187 -3.53706,2.62426 -1.29313,0.3804 -2.58625,0.76072 -3.87934,1.14098 -3.19478,-1.5973 -5.32461,-3.23271 -6.38952,-4.90623 -0.0761,-0.53238 -0.11411,-1.06484 -0.11409,-1.59738 -2e-5,-2.66222 0.91277,-4.98222 2.73836,-6.96 1.21703,-0.91271 2.70031,-1.3691 4.44984,-1.36918 3.11867,8e-5 5.3626,1.14106 6.73181,3.42295 1.29308,2.89057 1.29308,5.43877 0,7.6446 m 4.22164,71.99611 c -4.2597,0.68459 -8.13905,1.02689 -11.63804,1.02689 -4.18363,0 -7.87281,-0.49443 -11.06755,-1.48328 -0.0761,-1.52131 0.95081,-2.4341 3.08066,-2.73836 2.20589,-0.38033 3.46097,-1.29312 3.76524,-2.73837 0.30425,-3.34688 0.45638,-8.06294 0.4564,-14.1482 -2e-5,-6.08523 0.15211,-10.76326 0.45639,-14.03411 -1.21706,-3.42292 -2.92854,-5.70488 -5.13443,-6.84591 -2.05378,0.3043 -3.15673,-0.26619 -3.30885,-1.71148 -1e-5,-1.90159 1.14097,-3.34684 3.42295,-4.33574 1.90163,-0.83667 3.8413,-1.67339 5.81902,-2.51016 0.22818,-0.076 1.2931,-0.60848 3.19476,-1.59738 1.29309,-0.60847 2.35801,-0.91274 3.19475,-0.91279 0.45637,5e-5 0.91277,0.0761 1.36918,0.2282 0.68457,6.46562 0.38031,12.703 -0.91278,18.71214 0.6085,1.74954 0.91276,3.95545 0.91278,6.61771 -2e-5,1.29314 -0.11412,3.27085 -0.34229,5.93312 -0.15215,2.66232 -0.22822,4.64002 -0.2282,5.93312 -2e-5,5.02034 1.29309,8.78559 3.87935,11.29575 1.06489,-0.15213 2.09178,0.26623 3.08066,1.25508 l 0,2.05377"
         style=""
         id="path3136" />
      <path
         d="m 524.28727,430.60386 c -0.83678,5.40068 -2.92858,10.26887 -6.27541,14.6046 -3.57514,4.64001 -7.87284,7.56853 -12.89313,8.78558 -2.12987,0.53246 -4.22168,0.79869 -6.27541,0.79869 -5.40069,0 -9.62233,-1.67344 -12.66493,-5.02033 -0.45641,-0.15213 -0.91281,-0.22819 -1.36918,-0.2282 -0.98887,1e-5 -2.16789,0.76066 -3.53705,2.28197 -1.3692,1.44525 -2.66231,2.01574 -3.87935,1.71148 -0.0761,-0.53246 -0.41837,-1.40721 -1.02688,-2.62427 -0.53247,-1.21704 -0.7987,-2.12983 -0.79869,-2.73836 -1e-5,-0.76065 0.30425,-1.48327 0.91278,-2.16787 0.22819,-3.34688 0.34229,-7.68261 0.3423,-13.00722 -10e-6,-7.30227 0.038,-11.67604 0.1141,-13.12132 0.38031,-0.53243 0.57048,-1.14095 0.57049,-1.82558 -1e-5,-0.53242 -0.11411,-1.29308 -0.34229,-2.28197 -0.22821,-1.06488 -0.34231,-1.86356 -0.3423,-2.39606 -10e-6,-0.98881 0.26622,-1.82554 0.79869,-2.51017 l -0.68459,-2.05377 0.45639,-24.18887 c -0.53247,-0.91272 -2.09181,-1.97764 -4.67803,-3.19476 -2.20591,-0.98878 -3.30886,-2.12976 -3.30886,-3.42295 0,-0.68451 0.22819,-1.4832 0.68459,-2.39607 1.36918,-0.30418 3.87934,-1.82549 7.5305,-4.56394 3.42294,-2.51008 5.9331,-3.76516 7.5305,-3.76524 2.12981,8e-5 3.80325,1.52139 5.02033,4.56393 -0.15216,1.74959 -0.76068,4.56402 -1.82558,8.44329 -1.06494,3.80335 -1.5974,6.73187 -1.59738,8.78558 -2e-5,1.06498 0.11408,2.09187 0.3423,3.08066 -0.30429,1.9017 -0.45642,3.34694 -0.45639,4.33574 -3e-5,2.73841 0.87473,4.56399 2.62426,5.47672 3.72719,-1.90158 7.83473,-2.8524 12.32263,-2.85246 4.71603,6e-5 8.7475,1.10301 12.09444,3.30886 7.07404,6.08529 10.61109,15.47939 10.61115,28.18231 m -13.69181,-19.16854 c -1.44529,-3.04258 -3.99349,-5.02028 -7.6446,-5.93312 -2.20594,-0.53241 -5.51479,-0.68454 -9.92656,-0.45639 -2.43413,0.0761 -4.06954,1.2171 -4.90623,3.42295 -0.45642,2.05382 -0.95085,4.14562 -1.48328,6.27542 0.30424,1.21709 0.45637,2.70036 0.45639,4.44984 -2e-5,1.90167 -0.30429,4.98233 -0.91279,9.24197 -0.60854,4.2597 -0.91281,7.37839 -0.91279,9.35607 -2e-5,7.07412 3.30884,11.06756 9.92657,11.98034 1.06489,0.38033 2.1298,0.5705 3.19476,0.57049 2.73832,10e-6 6.08521,-1.44524 10.04066,-4.33574 3.57504,-6.31343 5.36258,-12.93113 5.36263,-19.85313 -5e-5,-5.24849 -1.06497,-10.15472 -3.19476,-14.7187"
         style=""
         id="path3138" />
      <path
         d="m 578.90476,446.34945 c -3.95546,6.38951 -10.45906,9.58426 -19.51083,9.58427 -1.67348,-10e-6 -3.30889,-0.1141 -4.90624,-0.3423 -5.62887,-1.59738 -10.421,-4.83016 -14.3764,-9.69837 -3.95542,-4.86818 -6.12329,-10.19277 -6.50361,-15.97378 -0.30427,-4.7921 0.53245,-9.4321 2.51017,-13.92001 2.28195,-4.86816 5.55277,-8.44324 9.81246,-10.72525 3.11867,-3.49897 7.41637,-5.24848 12.89313,-5.24853 3.49898,5e-5 6.69373,0.79874 9.58426,2.39607 2.96652,1.59742 5.09636,3.80333 6.38952,6.61771 0.91274,1.90168 1.82552,3.76529 2.73836,5.59082 1.06487,2.20594 1.59733,4.18364 1.59738,5.93312 -5e-5,0.76069 -0.0761,1.52134 -0.2282,2.28197 l -2.62426,1.14098 c -0.15218,3e-5 -5.28661,-0.19013 -15.40329,-0.57049 -6.08528,-0.22817 -11.06757,-0.2662 -14.9469,-0.1141 -1.141,1.06495 -1.71149,2.54823 -1.71148,4.44984 -10e-6,0.76068 0.15212,2.16789 0.4564,4.22164 0.30424,1.74953 0.41834,3.11871 0.34229,4.10755 4.18359,8.82362 9.05179,13.34952 14.6046,13.57771 1.21702,0.15214 2.39604,0.2282 3.53706,0.2282 5.62881,0 10.15471,-2.05377 13.57771,-6.16132 0.53241,-0.15212 1.06487,-0.038 1.59738,0.3423 0.60847,0.38034 0.91273,0.7987 0.91279,1.25508 -6e-5,0.38034 -0.11415,0.72263 -0.3423,1.02689 m -10.72525,-31.60527 c -0.38037,-0.53242 -0.7607,-1.74947 -1.14099,-3.65115 -0.3043,-1.52127 -0.95086,-2.58619 -1.93967,-3.19476 -2.89053,-1.67339 -5.62889,-2.51012 -8.21509,-2.51016 -1.52134,4e-5 -2.89052,0.30431 -4.10754,0.91278 -1.36921,1.29317 -2.73839,2.62431 -4.10755,3.99345 -1.67346,1.67348 -2.51018,3.34693 -2.51016,5.02033 -2e-5,0.60856 0.0761,1.21709 0.2282,1.82558 1.59735,1.21708 3.80325,1.9397 6.6177,2.16787 -2e-5,3e-5 2.28195,3e-5 6.84591,0 4.7921,3e-5 7.56849,-1.52128 8.32919,-4.56394"
         style=""
         id="path3140" />
      <path
         d="m 639.60336,429.80517 c -0.76071,5.24855 -2.54825,9.92658 -5.36262,14.03411 -3.04268,4.48788 -6.92202,7.60657 -11.63805,9.35607 -1.52135,1.21705 -3.61315,1.93968 -6.27541,2.16787 -4e-5,0 -2.20594,0 -6.61771,0 -5.24855,-0.53246 -10.04068,-2.89049 -14.3764,-7.0741 -4.10756,-3.87934 -6.96002,-8.4813 -8.55739,-13.80591 -0.38033,-1.67342 -0.57049,-3.3849 -0.57049,-5.13443 0,-5.17243 1.59737,-10.95342 4.79214,-17.34296 6.61769,-7.68258 13.91998,-11.52389 21.9069,-11.52395 2.1298,6e-5 4.25964,0.30432 6.38951,0.91279 1.9016,0.30432 3.95537,1.06497 6.16132,2.28197 1.90159,1.2171 3.7652,2.43415 5.59082,3.65115 1.59733,2.43414 3.1947,4.90627 4.79213,7.4164 1.74946,2.96659 2.62421,5.62889 2.62427,7.98689 -6e-5,1.06495 -0.15219,2.1679 -0.4564,3.30885 -0.0761,0.38036 0.15208,0.98888 0.6846,1.82558 0.60846,0.83675 0.91272,1.4833 0.91278,1.93967 m -11.40984,4.22164 c 0.45634,-2.12981 0.68454,-4.37374 0.68459,-6.7318 -5e-5,-6.08522 -1.2171,-11.29571 -3.65115,-15.63149 -2.43414,-4.33569 -6.57972,-6.50356 -12.43673,-6.50361 -2.282,5e-5 -4.41184,0.38038 -6.38951,1.14098 -6.08527,3.80333 -9.1279,10.45906 -9.12788,19.96723 -2e-5,4.10757 0.60851,9.31806 1.82558,15.63149 1.29309,4.41181 4.83014,7.4164 10.61115,9.01377 0.45636,0.2282 0.95079,0.3423 1.48328,0.3423 0.3803,0 0.91276,-0.0761 1.59738,-0.2282 0.68456,-0.15213 1.21701,-0.22819 1.59738,-0.22819 0.68455,0 1.29308,0.26623 1.82557,0.79869 4.03144,-1.06492 7.41636,-3.91738 10.15476,-8.55739 l 1.82558,-9.01378"
         style=""
         id="path3142" />
    </g>
    <g
       transform="matrix(3.7150538,0,0,3.7150538,99.612699,353.9845)"
       id="layer1-0"
       inkscape:label="Layer 1">
      <path
         sodipodi:type="arc"
         style="opacity:0.70329674;color:#000000;fill:url(#radialGradient7085-6);fill-opacity:1;fill-rule:evenodd;stroke:none;stroke-width:1;marker:none;visibility:visible;display:inline;overflow:visible"
         id="path7077"
         sodipodi:cx="23.157747"
         sodipodi:cy="26.963573"
         sodipodi:rx="21.566757"
         sodipodi:ry="14.318913"
         d="m 44.724504,26.963573 c 0,7.908118 -9.655766,14.318914 -21.566757,14.318914 -11.910991,0 -21.5667569,-6.410796 -21.5667569,-14.318914 0,-7.908117 9.6557659,-14.318913 21.5667569,-14.318913 11.910991,0 21.566757,6.410796 21.566757,14.318913 z"
         inkscape:r_cx="true"
         inkscape:r_cy="true"
         transform="translate(1.237437,0.762563)" />
      <path
         transform="matrix(1.254237,0,0,1.541926,-9.79661,-6.279528)"
         inkscape:r_cy="true"
         inkscape:r_cx="true"
         d="m 40.5,21 c 0,4.556349 -6.6038,8.25 -14.75,8.25 C 17.6038,29.25 11,25.556349 11,21 c 0,-4.556349 6.6038,-8.25 14.75,-8.25 8.1462,0 14.75,3.693651 14.75,8.25 z"
         sodipodi:ry="8.25"
         sodipodi:rx="14.75"
         sodipodi:cy="21"
         sodipodi:cx="25.75"
         id="path7028"
         style="color:#000000;fill:#a1a39f;fill-opacity:1;fill-rule:evenodd;stroke:#6d6f6a;stroke-width:0.7190817;stroke-linecap:round;stroke-linejoin:round;stroke-miterlimit:4;stroke-opacity:1;stroke-dasharray:none;stroke-dashoffset:0;marker:none;visibility:visible;display:inline;overflow:visible"
         sodipodi:type="arc" />
      <path
         sodipodi:type="arc"
         style="color:#000000;fill:#555753;fill-opacity:1;fill-rule:evenodd;stroke:none;stroke-width:1.11522388;marker:none;visibility:visible;display:inline;overflow:visible"
         id="path7042"
         sodipodi:cx="25.75"
         sodipodi:cy="21"
         sodipodi:rx="14.75"
         sodipodi:ry="8.25"
         d="m 40.5,21 c 0,4.556349 -6.6038,8.25 -14.75,8.25 C 17.6038,29.25 11,25.556349 11,21 c 0,-4.556349 6.6038,-8.25 14.75,-8.25 8.1462,0 14.75,3.693651 14.75,8.25 z"
         inkscape:r_cx="true"
         inkscape:r_cy="true"
         transform="matrix(0.764011,0,0,1.001814,2.310475,2.543083)" />
      <path
         style="fill:url(#radialGradient6540-2);fill-rule:nonzero;stroke:#3b3d39;stroke-miterlimit:4;stroke-opacity:1"
         d="m 46.025804,41.226233 c 0,0 -8.323895,-3.737007 -13.655999,-3.266718 -5.683012,0.501239 -15.176777,0.837437 -18.898097,-5.03934 15.798097,4.764466 23.08699,-3.145748 33.779379,1.309515 0,0 -1.225283,6.996543 -1.225283,6.996543 z"
         id="path6456"
         inkscape:r_cx="true"
         inkscape:r_cy="true"
         sodipodi:nodetypes="czccc" />
      <path
         transform="matrix(0.760969,0,0,0.986663,2.905048,0.584267)"
         inkscape:r_cy="true"
         inkscape:r_cx="true"
         d="m 40.5,21 c 0,4.556349 -6.6038,8.25 -14.75,8.25 C 17.6038,29.25 11,25.556349 11,21 c 0,-4.556349 6.6038,-8.25 14.75,-8.25 8.1462,0 14.75,3.693651 14.75,8.25 z"
         sodipodi:ry="8.25"
         sodipodi:rx="14.75"
         sodipodi:cy="21"
         sodipodi:cx="25.75"
         id="path7026"
         style="color:#000000;fill:url(#linearGradient7093-5);fill-opacity:1;fill-rule:evenodd;stroke:#757972;stroke-width:1.23408842;stroke-linecap:round;stroke-linejoin:round;stroke-miterlimit:4;stroke-opacity:1;stroke-dasharray:none;stroke-dashoffset:0;marker:none;visibility:visible;display:inline;overflow:visible"
         sodipodi:type="arc" />
      <path
         style="color:#000000;fill:#d3d7cf;fill-opacity:1;fill-rule:evenodd;stroke:#888a85;stroke-width:1;stroke-linecap:round;stroke-linejoin:round;stroke-miterlimit:4;stroke-opacity:1;stroke-dasharray:none;stroke-dashoffset:0;marker:none;visibility:visible;display:inline;overflow:visible"
         d="M 21.09375,7.71875 C 11.536229,8.2444238 4.0000001,14.13337 4,21.25 4,28.711046 12.288003,34.781251 22.5,34.78125 32.711998,34.78125 41,28.711045 41,21.25 41,13.788954 32.711998,7.71875 22.5,7.71875 c -0.03989,0 -0.08517,-1.845e-4 -0.125,0 -0.238056,0.0011 -0.482906,-0.00764 -0.71875,0 -0.115158,0.00373 -0.22915,-0.00527 -0.34375,0 -0.0755,0.00347 -0.143494,-0.00414 -0.21875,0 z m -1.375,2.1875 c 0.06325,-0.00511 0.123591,0.00347 0.1875,0 0.134104,-0.00728 0.269544,0 0.40625,0 2.916392,2e-7 5.28125,1.702203 5.28125,3.78125 0,2.079047 -2.364859,3.75 -5.28125,3.75 -2.916391,0 -5.28125,-1.670953 -5.28125,-3.75 0,-1.935148 2.051954,-3.568463 4.6875,-3.78125 z m 11.5,4.59375 c 0.06665,-0.006 0.120185,0.0043 0.1875,0 0.116752,-0.0074 0.225136,0.0021 0.34375,0 0.0482,-8.73e-4 0.07651,0 0.125,0 3.103453,0 5.625,1.814203 5.625,4.03125 0,2.217046 -2.521546,4 -5.625,4 -3.103454,1e-6 -5.625,-1.782953 -5.625,-4 -1e-6,-2.048003 2.191783,-3.782807 4.96875,-4.03125 z M 12,17.65625 c 0.217826,-0.01782 0.463035,0 0.6875,0 3.192389,0 5.78125,1.842348 5.78125,4.125 0,2.282652 -2.588861,4.125 -5.78125,4.125 -3.1923882,0 -5.78125,-1.842348 -5.78125,-4.125 0,-2.122152 2.2136041,-3.889336 5.09375,-4.125 z m 11.53125,5.125 c 0.02398,-0.0028 0.03844,0.0026 0.0625,0 0.0027,-1.17e-4 0.0287,-3.3e-5 0.03125,0 0.0026,4.5e-5 0.02849,9.9e-5 0.03125,0 0.0062,1.06e-4 0.02806,1.15e-4 0.03125,0 0.02615,1.79e-4 0.06751,-3.83e-4 0.09375,0 0.0032,-7.7e-5 0.02502,-8.3e-5 0.03125,0 0.240976,-0.01978 0.47043,0 0.71875,0 3.531666,0 6.40625,2.029561 6.40625,4.5625 0,2.53294 -2.874584,4.59375 -6.40625,4.59375 -3.531666,0 -6.40625,-2.060811 -6.40625,-4.59375 0,-2.281969 2.361444,-4.208711 5.40625,-4.5625 z"
         id="path7012"
         inkscape:r_cx="true"
         inkscape:r_cy="true" />
      <path
         sodipodi:type="arc"
         style="color:#000000;fill:none;stroke:url(#linearGradient7060-2-0);stroke-width:1.05932879;stroke-linecap:round;stroke-linejoin:round;stroke-miterlimit:4;stroke-opacity:1;stroke-dasharray:none;stroke-dashoffset:0;marker:none;visibility:visible;display:inline;overflow:visible"
         id="path7044"
         sodipodi:cx="22.185474"
         sodipodi:cy="19.008621"
         sodipodi:rx="18.473166"
         sodipodi:ry="13.435029"
         d="m 40.65864,19.008621 c 0,7.419962 -8.270718,13.435029 -18.473166,13.435029 -10.202447,0 -18.4731651,-6.015067 -18.4731651,-13.435029 0,-7.419961 8.2707181,-13.4350288 18.4731651,-13.4350288 10.202448,0 18.473166,6.0150678 18.473166,13.4350288 z"
         inkscape:r_cx="true"
         inkscape:r_cy="true"
         transform="matrix(0.950533,0,0,0.9375,1.450995,3.320621)" />
      <path
         style="color:#000000;fill:url(#linearGradient7075-8);fill-opacity:1;fill-rule:evenodd;stroke:none;stroke-width:1;marker:none;visibility:visible;display:inline;overflow:visible"
         d="m 46.875,34.493906 -1.081562,6.04999 C 43.18442,39.668459 41.611389,38.97574 38.722272,38.287036 l 0.331829,-4.912647 c 1.898531,-0.201306 4.863279,0.141734 7.820899,1.119517 z"
         id="path7067"
         inkscape:r_cx="true"
         inkscape:r_cy="true"
         sodipodi:nodetypes="ccccc" />
      <path
         style="opacity:0.70329674;color:#000000;fill:url(#linearGradient2920);fill-opacity:1;fill-rule:evenodd;stroke:none;stroke-width:1;marker:none;visibility:visible;display:inline;overflow:visible"
         d="m 46.875,34.3125 -0.1875,0.875 c -8.104899,-3.028886 -15.566065,-0.226719 -23.375,0 10.611053,-0.882579 14.090243,-3.715657 23.5625,-0.875 z"
         id="path7136"
         inkscape:r_cx="true"
         inkscape:r_cy="true"
         sodipodi:nodetypes="cccc" />
    </g>
  </g>
</svg>
